<?xml version="1.0" encoding="utf-8"?>
<!-- Generator: Adobe Illustrator 26.3.1, SVG Export Plug-In . SVG Version: 6.00 Build 0)  -->
<svg version="1.1" id="Layer_1" xmlns="http://www.w3.org/2000/svg" xmlns:xlink="http://www.w3.org/1999/xlink" x="0px" y="0px"
	 viewBox="0 0 764 446" style="enable-background:new 0 0 764 446;" xml:space="preserve">
<style type="text/css">
	.st0{fill:#A7CCE9;}
	.st1{fill:#ECECEC;}
	.st2{fill:url(#SVGID_1_);}
	.st3{fill:#1A1A1A;}
</style>
<path class="st0" d="M60.73,39.67c4.23,6.14,7.99,11.55,10.66,16.58c2.67,5.04,4.27,9.68,4.25,14.39c0,3.09-0.67,6.24-2.23,9.62
	c-1.56,3.38-3.98,6.98-7.51,10.93c-4.6,5.15-10.69,8.69-16.85,12.42c-6.15,3.73-12.36,7.67-17,13.79
	c-5.1,6.74-7.35,13.28-7.34,19.56c0,7.23,2.96,13.99,7.58,20.25c6.93,9.4,17.6,17.82,28.21,25.45
	c10.61,7.62,21.16,14.47,27.77,20.49c10.11,9.21,17.1,17.88,21.54,26.11c4.44,8.23,6.36,15.99,6.36,23.48
	c0,13.04-5.86,25.33-14.82,37.45c-13.42,18.16-33.73,35.76-50.72,54.62c-8.5,9.43-16.18,19.19-21.75,29.55
	c-5.57,10.34-9.03,21.31-9.03,33.08c0,2.06,0.11,4.14,0.33,6.25c0.07,0.65,0.65,1.12,1.3,1.05c0.65-0.07,1.12-0.65,1.05-1.3
	c-0.21-2.03-0.31-4.03-0.31-6c0-15.06,5.89-28.83,14.85-41.92c13.42-19.63,33.69-37.57,50.68-55.67
	c8.5-9.06,16.17-18.15,21.74-27.59c5.57-9.42,9.05-19.2,9.05-29.52c0-7.89-2.04-16.09-6.65-24.6c-4.61-8.53-11.77-17.4-22.02-26.74
	c-4.57-4.16-10.79-8.57-17.56-13.32c-10.15-7.1-21.54-14.93-30.33-23.5c-4.4-4.28-8.14-8.74-10.76-13.35
	c-2.63-4.61-4.14-9.36-4.14-14.29c0-5.7,2-11.7,6.87-18.13c4.31-5.7,10.23-9.48,16.36-13.2c6.12-3.72,12.44-7.34,17.38-12.87
	c3.63-4.07,6.21-7.87,7.88-11.52c1.67-3.66,2.44-7.17,2.44-10.61c0-5.25-1.76-10.28-4.54-15.5c-2.78-5.22-6.59-10.66-10.81-16.81
	c-0.37-0.53-1.11-0.67-1.64-0.31c-0.53,0.37-0.67,1.11-0.31,1.64L60.73,39.67z M89.53,36.59c3.65,6.29,6.88,11.72,9.18,16.68
	c2.3,4.95,3.65,9.4,3.65,13.75c0,3.3-0.77,6.59-2.57,10.11c-1.79,3.51-4.63,7.27-8.77,11.39C85.95,93.6,79.5,97.01,73,100.63
	c-6.49,3.62-13.03,7.45-18.12,13.5c-5.86,6.96-8.4,13.92-8.39,20.68c0,7.19,2.84,14.07,7.26,20.58
	c6.65,9.76,16.89,18.79,27.07,27.01c10.18,8.21,20.32,15.62,26.65,21.94c18.57,18.52,26.17,36.4,26.17,53.75
	c0,14.04-5.01,27.81-13.48,41.3c-8.47,13.48-20.42,26.66-34.2,39.43C74,349.91,62.98,359.69,54.9,370.9
	c-8.08,11.2-13.19,23.91-13.17,40.57c0,2.42,0.11,4.92,0.33,7.52c0.06,0.65,0.62,1.13,1.27,1.07c0.65-0.06,1.13-0.62,1.07-1.27
	c-0.21-2.54-0.32-4.97-0.32-7.32c0-16.18,4.87-28.27,12.73-39.19c7.86-10.92,18.77-20.62,30.74-31.73
	c13.87-12.86,25.95-26.16,34.58-39.9c8.64-13.74,13.85-27.95,13.85-42.57c0-18.07-7.99-36.63-26.87-55.42
	c-4.38-4.36-10.35-9.09-16.84-14.19c-9.74-7.64-20.67-16.11-29.12-25.17c-4.22-4.53-7.82-9.2-10.35-13.97
	c-2.53-4.76-3.98-9.61-3.98-14.52c0-6.17,2.26-12.51,7.84-19.17c4.75-5.66,10.99-9.36,17.46-12.96c6.46-3.61,13.13-7.1,18.55-12.5
	c4.25-4.25,7.25-8.17,9.19-11.98c1.94-3.81,2.83-7.5,2.82-11.18c0-4.86-1.5-9.64-3.88-14.74c-2.38-5.12-5.64-10.59-9.29-16.87
	c-0.33-0.57-1.05-0.75-1.61-0.42c-0.57,0.33-0.75,1.05-0.42,1.62L89.53,36.59z M116.3,38.94c2.92,5.86,5.41,10.96,7.14,15.57
	c1.73,4.61,2.72,8.72,2.72,12.63c0,3.81-0.92,7.45-3.05,11.33c-2.13,3.88-5.51,7.97-10.44,12.53c-5.33,4.93-11.93,8.19-18.57,11.65
	c-6.63,3.47-13.33,7.15-18.65,13.07c-6.32,7.01-9.04,14.13-9.03,21.11c0,6.92,2.64,13.62,6.76,20.01
	c6.19,9.59,15.74,18.58,25.28,26.79c9.53,8.21,19.04,15.65,25.09,21.97c18.12,18.95,25.76,37.35,25.77,55.24
	c0,13.4-4.3,26.56-11.89,39.51c-7.59,12.94-18.47,25.62-31.56,37.98c-11.96,11.3-23.66,21.04-32.43,32.01
	c-8.77,10.96-14.58,23.21-14.58,39.25c0,4.36,0.42,9,1.33,13.96c0.12,0.64,0.73,1.06,1.37,0.94s1.06-0.73,0.94-1.37
	c-0.88-4.84-1.3-9.34-1.3-13.55c0-15.45,5.51-27.06,14.06-37.78c8.54-10.7,20.16-20.42,32.2-31.76
	c13.2-12.46,24.23-25.29,31.97-38.5c7.74-13.2,12.22-26.8,12.22-40.7c0-18.59-8-37.64-26.42-56.87c-4.16-4.35-9.78-9.1-15.87-14.21
	c-9.14-7.66-19.35-16.14-27.23-25.1c-3.94-4.48-7.29-9.08-9.65-13.74c-2.36-4.66-3.71-9.36-3.71-14.11c0-6.36,2.42-12.84,8.43-19.54
	c4.98-5.56,11.37-9.12,17.99-12.56c6.6-3.46,13.42-6.78,19.08-12.02c5.04-4.67,8.6-8.94,10.91-13.12c2.31-4.18,3.35-8.28,3.35-12.48
	c0-4.32-1.07-8.7-2.86-13.47c-1.79-4.76-4.3-9.92-7.24-15.79c-0.29-0.58-1-0.81-1.58-0.53c-0.58,0.29-0.81,1-0.53,1.58L116.3,38.94z
	 M136.91,45.13c2.53,5.77,4.71,10.83,6.23,15.4c1.53,4.58,2.4,8.67,2.4,12.53c0,4.02-0.94,7.82-3.16,11.78
	c-2.23,3.96-5.75,8.1-10.96,12.68c-5.37,4.74-11.96,7.81-18.59,11.09c-6.62,3.28-13.29,6.78-18.68,12.53
	c-6.53,6.96-9.33,14.06-9.32,21.02c0,6.47,2.38,12.75,6.12,18.74c5.61,9,14.28,17.44,22.99,25.22c8.71,7.76,17.46,14.85,23.18,20.95
	c17.33,18.49,24.67,36.48,24.69,54.09c0,12.64-3.79,25.15-10.57,37.53c-6.78,12.37-16.51,24.61-28.34,36.68
	c-11.78,12.02-23.06,22.3-31.46,33.42c-8.4,11.11-13.89,23.14-13.88,38.37c0,6.64,1.04,13.89,3.3,21.94
	c0.18,0.63,0.82,0.99,1.45,0.81c0.62-0.18,0.99-0.82,0.81-1.45c-2.22-7.87-3.22-14.9-3.22-21.3c0-14.65,5.21-26.07,13.41-36.94
	c8.2-10.87,19.42-21.12,31.26-33.2c11.94-12.16,21.81-24.56,28.73-37.2c6.92-12.63,10.87-25.54,10.87-38.66
	c0-18.29-7.7-36.93-25.32-55.71c-3.94-4.19-9.14-8.73-14.74-13.59c-8.4-7.28-17.69-15.27-24.83-23.68
	c-3.57-4.21-6.6-8.52-8.73-12.87c-2.13-4.35-3.35-8.74-3.35-13.15c0-6.31,2.47-12.75,8.68-19.4c5.03-5.38,11.41-8.76,18-12.02
	c6.59-3.27,13.39-6.4,19.1-11.43c5.33-4.68,9.05-9.01,11.45-13.29c2.4-4.28,3.47-8.54,3.47-12.94c0-4.22-0.96-8.55-2.52-13.27
	c-1.58-4.72-3.77-9.82-6.32-15.6c-0.26-0.6-0.96-0.86-1.56-0.6c-0.6,0.26-0.86,0.96-0.6,1.56V45.13z M154,53.57
	c4.57,11.56,8.02,20.57,8.01,28.57c0,4.19-0.91,8.1-3.1,12.12c-2.19,4.02-5.69,8.14-10.89,12.57c-5.3,4.52-11.75,7.38-18.24,10.46
	c-6.48,3.08-13.02,6.37-18.32,11.91c-6.57,6.85-9.38,13.76-9.37,20.51c0,5.89,2.1,11.55,5.4,16.96c4.95,8.11,12.62,15.7,20.4,22.73
	c7.78,7.03,15.67,13.49,21.05,19.2c16.34,17.36,23.15,34.36,23.15,51.18c0,11.83-3.38,23.62-9.36,35.42
	c-5.97,11.78-14.52,23.55-24.79,35.28c-11.39,13.01-22,24.06-29.81,35.5c-7.8,11.43-12.81,23.33-12.8,37.81
	c0,8.98,1.91,18.93,6.17,30.38c0.22,0.61,0.91,0.92,1.52,0.7c0.61-0.23,0.92-0.91,0.69-1.52c-4.18-11.25-6.02-20.91-6.02-29.56
	c0-13.93,4.75-25.26,12.38-36.48c7.64-11.2,18.19-22.22,29.64-35.28c10.36-11.82,19.02-23.73,25.12-35.76
	c6.09-12.03,9.61-24.19,9.61-36.48c0-17.49-7.15-35.14-23.8-52.79c-7.39-7.83-19.01-16.74-28.74-26.47
	c-4.87-4.86-9.25-9.91-12.4-15.07c-3.15-5.17-5.04-10.41-5.04-15.72c0-6.07,2.45-12.34,8.71-18.88c4.95-5.17,11.18-8.35,17.63-11.42
	c6.45-3.07,13.12-5.99,18.76-10.79c5.35-4.56,9.06-8.88,11.43-13.23c2.38-4.35,3.39-8.73,3.39-13.26
	c-0.01-8.68-3.62-17.87-8.18-29.44c-0.24-0.6-0.92-0.91-1.53-0.66c-0.6,0.24-0.91,0.92-0.66,1.53L154,53.57z M168.32,63.34
	c4.29,11.88,7.98,21.57,7.96,30.22c0,4.2-0.85,8.16-2.91,12.14c-2.06,3.97-5.36,7.97-10.32,12.12c-5.12,4.29-11.34,6.95-17.62,9.82
	c-6.27,2.88-12.58,5.98-17.72,11.3c-6.48,6.71-9.24,13.35-9.23,19.77c0,5.2,1.79,10.17,4.62,14.87
	c4.25,7.07,10.84,13.62,17.64,19.76c6.79,6.13,13.79,11.84,18.82,17.07c15.25,15.86,21.45,31.63,21.46,47.47
	c0,10.97-2.99,22.02-8.15,33.14c-5.16,11.12-12.5,22.29-21.13,33.48c-10.95,14.2-21.07,25.96-28.5,37.66
	c-7.44,11.69-12.18,23.39-12.17,37.29c0,10.85,2.88,22.99,9.45,37.51c0.27,0.59,0.97,0.86,1.56,0.59c0.59-0.27,0.86-0.97,0.59-1.56
	c-6.48-14.31-9.24-26.11-9.24-36.53c0-13.35,4.51-24.53,11.81-36.03c7.29-11.49,17.39-23.22,28.38-37.48
	c8.7-11.29,16.12-22.6,21.4-33.93c5.27-11.35,8.38-22.73,8.38-34.13c0-16.49-6.54-32.94-22.12-49.11
	c-6.92-7.17-17.09-14.96-25.5-23.38c-4.21-4.2-7.95-8.56-10.64-13.02c-2.69-4.47-4.28-9.01-4.28-13.66c0-5.72,2.39-11.7,8.57-18.13
	c4.77-4.95,10.77-7.94,17-10.79c6.22-2.87,12.67-5.58,18.15-10.17c5.14-4.31,8.66-8.53,10.9-12.85c2.24-4.32,3.17-8.7,3.17-13.22
	c-0.01-9.32-3.85-19.17-8.11-31.02c-0.22-0.61-0.9-0.93-1.51-0.71c-0.61,0.22-0.93,0.9-0.71,1.51L168.32,63.34z M182.74,74.54
	c3.86,11.7,7.43,21.55,7.42,30.38c0,4.28-0.81,8.31-2.82,12.31c-2,4-5.22,7.97-10.1,12.03c-4.89,4.07-10.84,6.56-16.84,9.24
	c-6,2.69-12.04,5.6-16.96,10.72c-6.3,6.57-8.99,12.89-8.98,18.91c0,4.49,1.49,8.75,3.85,12.74c3.55,6,9.08,11.5,14.89,16.71
	c5.81,5.21,11.91,10.13,16.62,14.84c14.21,14.28,19.84,28.93,19.85,43.92c0,10.06-2.57,20.29-6.92,30.61
	c-4.35,10.32-10.47,20.73-17.55,31.11c-10.04,14.76-22.98,27.87-31.92,43.78c-6.17,10.99-8.75,20.95-8.75,30.54
	c0,7.88,1.73,15.49,4.58,23.22c2.84,7.75,6.79,15.64,11.25,24.13c0.31,0.58,1.01,0.8,1.59,0.49c0.58-0.31,0.8-1.01,0.5-1.59
	c-4.45-8.47-8.35-16.28-11.12-23.85c-2.78-7.57-4.43-14.9-4.43-22.41c0-9.16,2.45-18.66,8.46-29.38
	c8.72-15.56,21.6-28.62,31.8-43.62c7.13-10.46,13.34-20.99,17.77-31.53c4.43-10.53,7.09-21.07,7.09-31.53
	c0.01-15.59-5.97-30.97-20.55-45.59c-6.45-6.45-15.19-13.08-22.27-20.17c-3.55-3.54-6.67-7.18-8.87-10.93
	c-2.21-3.75-3.52-7.57-3.52-11.55c0-5.3,2.3-10.98,8.33-17.27c4.54-4.73,10.25-7.54,16.21-10.2c5.95-2.68,12.13-5.21,17.39-9.58
	c5.07-4.21,8.52-8.44,10.7-12.79c2.18-4.34,3.08-8.8,3.08-13.37c-0.01-9.46-3.71-19.46-7.54-31.11c-0.2-0.61-0.87-0.96-1.48-0.75
	c-0.61,0.2-0.96,0.87-0.76,1.49L182.74,74.54z M196.89,84.8c3.46,11.54,6.93,21.6,6.92,30.67c0,4.36-0.79,8.5-2.73,12.55
	c-1.96,4.04-5.08,8.02-9.85,11.99c-4.65,3.88-10.32,6.21-16.05,8.75c-5.71,2.55-11.49,5.31-16.17,10.24
	c-6.12,6.46-8.71,12.47-8.71,18.12c0,3.83,1.2,7.42,3.13,10.78c2.9,5.04,7.45,9.61,12.34,14.01c4.9,4.4,10.16,8.62,14.53,12.86
	c13.42,13.02,18.68,26.93,18.69,41.4c0,18.09-8.34,37.13-19.85,55.8c-9.51,15.44-22.42,29.01-31.04,45.49
	c-5.62,10.77-8.01,20.56-8.01,29.89c0,9.06,2.25,17.64,5.87,26.27c3.62,8.63,8.6,17.33,14.13,26.64c0.33,0.55,1.06,0.74,1.61,0.41
	c0.55-0.33,0.74-1.06,0.41-1.62c-5.51-9.31-10.45-17.92-13.97-26.35c-3.54-8.45-5.68-16.7-5.68-25.36c0-8.92,2.26-18.29,7.74-28.79
	c8.39-16.1,21.24-29.63,30.94-45.35c11.6-18.84,20.2-38.2,20.2-57.04c0.01-15.06-5.59-29.72-19.41-43.1
	c-5.97-5.78-13.38-11.39-19.22-17.29c-2.92-2.95-5.46-5.96-7.23-9.06c-1.78-3.1-2.82-6.27-2.82-9.6c0-4.88,2.22-10.28,8.06-16.49
	c4.29-4.54,9.72-7.18,15.41-9.71c5.67-2.52,11.57-4.91,16.6-9.09c4.97-4.15,8.34-8.39,10.46-12.78c2.12-4.4,2.97-8.92,2.97-13.58
	c0-9.66-3.58-19.86-7.01-31.34c-0.19-0.63-0.85-0.98-1.47-0.79c-0.62,0.19-0.98,0.85-0.79,1.47V84.8z M211.74,92.84
	c3.05,11.35,6.33,21.61,6.32,30.91c0,4.53-0.77,8.83-2.67,12.99c-1.92,4.15-5,8.19-9.71,12.15c-4.44,3.74-9.86,5.97-15.34,8.4
	c-5.47,2.44-11.01,5.11-15.46,9.9c-2.98,3.22-5.1,6.26-6.48,9.18c-1.38,2.93-2.01,5.72-2.01,8.41c0,3.29,0.96,6.36,2.51,9.24
	c2.35,4.32,6.03,8.22,10.13,12.03c4.1,3.81,8.64,7.54,12.68,11.39c13.06,12.44,18.29,26.28,18.3,40.83
	c0,15.73-6.22,32.35-15.67,48.55c-9.11,15.63-22.19,29.04-30.71,45.55c-5.4,10.47-7.71,20.03-7.71,29.06
	c0,9.87,2.75,19.1,7.07,28.25c4.34,9.16,10.25,18.28,16.67,28.01c0.35,0.54,1.08,0.7,1.64,0.33c0.54-0.35,0.7-1.09,0.33-1.64
	c-6.41-9.72-12.27-18.75-16.51-27.72c-4.23-8.96-6.85-17.82-6.85-27.25c0-8.63,2.19-17.77,7.44-27.98
	c8.27-16.1,21.32-29.49,30.64-45.43c9.57-16.41,15.99-33.37,15.99-49.74c0.01-15.12-5.55-29.72-19.04-42.54
	c-5.51-5.25-11.74-10.14-16.53-15.18c-2.39-2.51-4.42-5.06-5.83-7.68c-1.41-2.62-2.22-5.27-2.23-8.1c0-2.31,0.54-4.75,1.78-7.4
	c1.25-2.65,3.22-5.5,6.08-8.59c4.08-4.39,9.26-6.93,14.7-9.35c5.42-2.42,11.08-4.71,15.9-8.75c4.94-4.14,8.26-8.47,10.33-12.97
	c2.07-4.5,2.9-9.18,2.89-13.98c0-9.85-3.38-20.25-6.4-31.53c-0.17-0.63-0.81-1-1.45-0.84c-0.62,0.17-1,0.81-0.84,1.45L211.74,92.84z
	 M228.22,97.34c2.56,10.89,5.61,21.38,5.61,31.04c0,4.66-0.69,9.11-2.47,13.36c-1.78,4.26-4.63,8.34-9.03,12.23
	c-4.62,4.1-10.52,6.44-16.44,9.06c-5.9,2.63-11.84,5.58-16.27,11.13c-4.79,6.03-6.85,11.33-6.85,16.19c0,3.02,0.79,5.81,2.11,8.42
	c1.98,3.93,5.13,7.46,8.66,10.95c3.55,3.49,7.49,6.95,11.16,10.65c13,13.15,19.26,27.47,19.27,43.11c0,9.18-2.17,18.82-6.48,28.94
	c-4.46,10.45-11.32,19.41-18.44,28.33c-7.12,8.92-14.49,17.77-19.86,28.06c-5.16,9.91-7.38,19-7.38,27.59
	c0,9.91,2.95,19.1,7.57,28.06c4.62,8.96,10.9,17.73,17.66,26.88c0.39,0.52,1.12,0.64,1.65,0.25c0.52-0.39,0.64-1.12,0.25-1.65
	c-6.74-9.13-12.96-17.81-17.46-26.55c-4.5-8.75-7.31-17.54-7.31-26.97c0-8.17,2.1-16.87,7.11-26.5c5.2-9.99,12.47-18.74,19.61-27.68
	c7.14-8.94,14.16-18.07,18.77-28.87c4.41-10.36,6.67-20.31,6.67-29.86c0-16.29-6.6-31.3-19.95-44.77
	c-4.99-5.04-10.37-9.52-14.46-14.08c-2.04-2.28-3.75-4.56-4.94-6.92c-1.19-2.36-1.86-4.76-1.86-7.36c0-4.18,1.74-8.95,6.33-14.73
	c4.02-5.06,9.52-7.85,15.38-10.45c5.85-2.61,12.01-4.99,17.05-9.45c4.63-4.1,7.72-8.49,9.64-13.09c1.92-4.6,2.65-9.39,2.65-14.27
	c0-10.14-3.14-20.77-5.67-31.59c-0.15-0.64-0.78-1.03-1.41-0.88c-0.64,0.15-1.03,0.78-0.88,1.42L228.22,97.34z M248.74,96.99
	c1.86,9.82,3.88,19.47,3.88,28.51c0,5.54-0.75,10.85-2.73,15.88c-1.98,5.02-5.18,9.77-10.18,14.21c-4.6,4.11-10.43,6.49-16.27,9.18
	c-5.82,2.69-11.68,5.68-16.05,11.23c-4.84,6.13-6.9,11.69-6.9,16.85c0,2.96,0.67,5.77,1.82,8.43c1.71,4.01,4.44,7.74,7.59,11.43
	c3.15,3.69,6.71,7.34,10.11,11.16c6.33,7.1,11.9,14.73,15.88,22.78c3.98,8.04,6.38,16.5,6.38,25.3c0,6.73-1.4,13.68-4.58,20.83
	c-4.32,9.71-11.43,17.57-18.94,25.3c-7.51,7.73-15.41,15.31-21.18,24.53c-5.92,9.45-8.43,18.2-8.41,26.46
	c0,9.47,3.28,18.21,8.24,26.62c4.96,8.42,11.61,16.54,18.46,24.83c0.41,0.51,1.15,0.57,1.66,0.15c0.51-0.41,0.57-1.15,0.15-1.66
	c-6.86-8.28-13.42-16.32-18.25-24.52c-4.83-8.2-7.91-16.51-7.91-25.42c0-7.77,2.33-16.05,8.06-25.21
	c5.55-8.89,13.33-16.37,20.87-24.13c7.54-7.76,14.87-15.83,19.4-25.98c3.32-7.44,4.8-14.73,4.8-21.8c0-9.24-2.51-18.06-6.62-26.35
	c-4.11-8.3-9.82-16.09-16.24-23.29c-4.6-5.15-9.38-9.92-12.96-14.71c-1.79-2.39-3.29-4.79-4.31-7.22c-1.04-2.44-1.63-4.91-1.63-7.51
	c0-4.53,1.77-9.52,6.4-15.39c3.97-5.04,9.4-7.89,15.19-10.54c5.76-2.67,11.84-5.11,16.85-9.55c5.24-4.66,8.7-9.74,10.81-15.11
	c2.11-5.37,2.9-10.98,2.9-16.74c0-9.38-2.06-19.14-3.91-28.94c-0.12-0.64-0.74-1.06-1.38-0.94c-0.64,0.12-1.06,0.74-0.94,1.38
	L248.74,96.99z M272.01,90.75c1.17,8.67,2.35,17.15,2.35,25.21c0,6.66-0.8,13.03-3.04,19c-2.24,5.98-5.9,11.59-11.74,16.78
	c-4.71,4.21-10.68,6.76-16.63,9.6c-5.93,2.84-11.87,6.01-16.3,11.68c-5.01,6.39-7.08,12.56-7.08,18.48c0,6.63,2.56,12.83,6.14,18.8
	c3.58,5.97,8.21,11.72,12.51,17.47c5.77,7.7,12.56,16.4,17.89,25.61c5.33,9.21,9.17,18.91,9.17,28.61c0,5.02-1.01,10.05-3.39,15.09
	c-3.95,8.37-11.77,14.47-20.23,20.26c-8.45,5.79-17.49,11.24-23.67,18.62c-6.39,7.62-9.09,14.67-9.09,21.3
	c0,4.26,1.11,8.29,2.97,12.16c2.78,5.79,7.24,11.21,12.25,16.56c5.03,5.34,10.65,10.63,15.83,16.09c0.45,0.47,1.19,0.5,1.66,0.05
	c0.47-0.45,0.5-1.19,0.05-1.66c-6.99-7.36-14.66-14.31-20.51-21.36c-2.94-3.53-5.42-7.08-7.15-10.69
	c-1.73-3.62-2.73-7.29-2.73-11.13c0-5.97,2.39-12.44,8.53-19.79c5.8-6.96,14.67-12.36,23.2-18.19c8.52-5.84,16.73-12.14,21.03-21.19
	c2.53-5.34,3.63-10.76,3.62-16.09c0-10.33-4.05-20.39-9.49-29.79c-5.44-9.4-12.29-18.15-18.04-25.83
	c-4.32-5.78-8.91-11.49-12.37-17.27c-3.48-5.78-5.81-11.58-5.8-17.58c0-5.36,1.83-10.95,6.57-17.03c4.04-5.17,9.57-8.19,15.45-10.99
	c5.87-2.82,12.07-5.41,17.17-9.95c6.1-5.43,10.02-11.39,12.39-17.72c2.37-6.32,3.19-12.99,3.19-19.84c0-8.29-1.2-16.85-2.37-25.52
	c-0.08-0.65-0.68-1.1-1.32-1.01c-0.65,0.08-1.1,0.68-1.01,1.32V90.75z M299.11,77.78c0.46,7.49,0.97,14.54,0.97,21.22
	c0,8-0.72,15.44-3.09,22.48c-2.37,7.04-6.36,13.71-13.02,20.2c-4.42,4.31-9.66,7.49-14.89,10.89c-5.22,3.4-10.43,7.03-14.6,12.29
	c-6.35,7.99-8.97,15.77-8.97,23.28c0,8.07,2.98,15.73,7.28,23.1c4.3,7.37,9.93,14.48,15.38,21.44c6.15,7.88,13.47,17.12,19.23,26.8
	c5.76,9.67,9.92,19.76,9.92,29.2c0,4.45-0.91,8.75-2.99,12.9c-2.08,4.14-5.36,8.13-10.16,11.86c-5.88,4.59-12.86,7.75-19.91,10.91
	c-7.06,3.17-14.22,6.37-20.41,11.15c-4.73,3.66-8.05,7.23-10.22,10.79c-2.17,3.56-3.15,7.12-3.13,10.63c0,3.16,0.79,6.26,2.12,9.29
	c2,4.55,5.24,9,9.04,13.47c3.81,4.47,8.18,8.98,12.51,13.6c0.45,0.47,1.19,0.5,1.66,0.06c0.47-0.45,0.5-1.19,0.06-1.66
	c-5.8-6.19-11.61-12.1-15.93-17.87c-2.16-2.88-3.95-5.73-5.18-8.54s-1.92-5.58-1.92-8.35c0-3.07,0.84-6.16,2.79-9.41
	c1.97-3.24,5.08-6.63,9.64-10.16c5.89-4.55,12.87-7.69,19.94-10.86c7.06-3.17,14.21-6.38,20.4-11.21
	c5.02-3.91,8.55-8.17,10.81-12.67c2.26-4.48,3.24-9.19,3.24-13.96c0-10.15-4.39-20.56-10.25-30.42
	c-5.87-9.86-13.24-19.17-19.4-27.04c-5.46-6.97-11.02-14.01-15.2-21.18c-4.18-7.17-6.95-14.45-6.95-21.93
	c0-6.96,2.37-14.15,8.45-21.82c3.9-4.93,8.86-8.41,14.05-11.78c5.18-3.37,10.58-6.63,15.26-11.18c6.9-6.72,11.14-13.75,13.61-21.14
	c2.48-7.38,3.22-15.1,3.22-23.22c0-6.79-0.51-13.89-0.97-21.36c-0.04-0.65-0.6-1.14-1.25-1.11c-0.65,0.04-1.14,0.6-1.11,1.25
	L299.11,77.78z M321.29,66.44c0,13.74-0.09,25.59-2.45,36.57c-2.36,10.98-6.93,21.12-16,31.63c-3.71,4.29-8.25,7.95-12.74,11.76
	c-4.49,3.81-8.96,7.78-12.44,12.77c-7.09,10.13-10.08,19.4-10.08,28.11c0,9.12,3.25,17.53,8.14,25.65
	c4.9,8.14,11.46,16.03,18.22,24.18c6.25,7.54,14.32,17,20.8,27.07c6.49,10.07,11.35,20.76,11.34,30.58c0,4.36-0.93,8.55-3.09,12.55
	c-2.16,3.99-5.55,7.8-10.54,11.3c-6.32,4.45-13.62,7.15-21.09,9.71c-7.47,2.56-15.11,4.98-22.04,8.95
	c-6,3.44-10.22,6.83-12.97,10.32c-2.76,3.48-4.03,7.08-4.03,10.72c0,4.92,2.24,9.79,5.66,14.84c3.43,5.05,8.1,10.33,13.2,16.04
	c0.44,0.48,1.18,0.53,1.66,0.09c0.48-0.44,0.53-1.18,0.09-1.66c-5.1-5.71-9.71-10.93-13.01-15.79c-3.31-4.87-5.25-9.34-5.24-13.52
	c0-3.1,1.02-6.11,3.51-9.26c2.49-3.15,6.47-6.39,12.3-9.73c6.62-3.81,14.12-6.19,21.62-8.76c7.51-2.57,15.04-5.33,21.68-10.01
	c5.23-3.68,8.9-7.76,11.25-12.11c2.36-4.35,3.38-8.98,3.37-13.67c-0.01-10.61-5.13-21.61-11.71-31.86
	c-6.6-10.25-14.74-19.78-20.96-27.29c-6.76-8.15-13.24-15.98-18.02-23.9c-4.77-7.91-7.81-15.9-7.81-24.44
	c0-8.15,2.76-16.9,9.64-26.75c3.29-4.69,7.58-8.54,12.04-12.32c4.47-3.79,9.1-7.51,13-12.02c9.31-10.77,14.11-21.36,16.52-32.68
	c2.42-11.31,2.5-23.32,2.5-37.07c0-0.65-0.53-1.18-1.18-1.18c-0.65,0-1.18,0.53-1.18,1.18H321.29z M337.51,55.29
	c-0.65,14.07-1.45,26.7-4.07,38.69c-2.62,11.98-7.02,23.33-14.94,34.94c-3.45,5.06-7.6,9.69-11.68,14.45
	c-4.08,4.76-8.08,9.66-11.21,15.27c-6.32,11.37-9.1,21.24-9.1,30.24c0,9.84,3.32,18.55,8.7,26.93c5.37,8.39,12.8,16.49,21.14,25.23
	c7.11,7.45,15.84,16.73,22.75,26.63c6.93,9.9,12.01,20.43,11.98,30.25c0,4.58-1.07,9.01-3.56,13.28
	c-2.49,4.27-6.41,8.37-12.17,12.22c-6.45,4.29-13.7,6.85-21.12,9.26c-7.42,2.41-14.99,4.66-22.02,8.42
	c-6.03,3.23-10.27,6.38-13.06,9.61s-4.08,6.62-4.08,10.07c0,4.36,1.97,8.72,5.01,13.33c3.04,4.62,7.19,9.55,11.78,15.05
	c0.41,0.5,1.15,0.57,1.66,0.15c0.5-0.41,0.57-1.15,0.15-1.66c-4.6-5.5-8.71-10.39-11.62-14.84c-2.92-4.45-4.62-8.41-4.62-12.03
	c0-2.88,1.01-5.61,3.5-8.54c2.5-2.91,6.5-5.92,12.38-9.07c6.74-3.62,14.18-5.84,21.64-8.26c7.45-2.42,14.93-5.04,21.69-9.53
	c6-3.99,10.2-8.35,12.9-12.98c2.7-4.64,3.89-9.52,3.88-14.47c-0.01-10.65-5.36-21.51-12.42-31.61c-7.06-10.1-15.86-19.44-22.98-26.9
	c-8.32-8.73-15.65-16.74-20.86-24.87c-5.22-8.15-8.32-16.37-8.32-25.65c0-8.5,2.62-17.96,8.79-29.1c2.99-5.38,6.88-10.15,10.93-14.9
	c4.05-4.74,8.26-9.42,11.83-14.66c8.1-11.85,12.63-23.54,15.3-35.76c2.66-12.22,3.46-24.98,4.11-39.08c0.04-0.65-0.47-1.2-1.12-1.24
	c-0.65-0.04-1.2,0.47-1.24,1.12L337.51,55.29z M349.36,46.9c-2.38,28.57-5.43,53.04-18.7,78.2c-6.2,11.78-14.48,22.54-20.01,35.08
	c-5.41,12.3-7.92,22.57-7.92,31.67c0,10.33,3.28,19.11,9.05,27.41c5.79,8.32,14.03,16.19,24.11,24.98
	c8.2,7.16,17.55,15.87,24.8,25.28c3.63,4.69,6.73,9.57,8.92,14.47c2.19,4.91,3.45,9.85,3.45,14.72c0,4.71-1.17,9.35-3.89,13.94
	c-2.71,4.59-7,9.12-13.26,13.48c-6.22,4.35-13.39,7.03-20.63,9.68c-7.25,2.65-14.58,5.28-21.06,9.66
	c-5.14,3.47-8.77,6.72-11.15,9.97c-2.38,3.24-3.48,6.51-3.48,9.8c0,2.32,0.53,4.62,1.46,6.96c1.39,3.5,3.66,7.07,6.46,10.93
	c2.79,3.86,6.13,8.02,9.69,12.64c0.4,0.52,1.13,0.61,1.65,0.21c0.52-0.4,0.61-1.13,0.21-1.65c-4.76-6.2-9.08-11.51-12.18-16.26
	c-1.54-2.38-2.79-4.61-3.63-6.73c-0.85-2.12-1.3-4.13-1.3-6.09c0-2.77,0.88-5.47,3.02-8.41c2.13-2.92,5.56-6.04,10.56-9.4
	c6.16-4.15,13.29-6.75,20.55-9.4c7.26-2.65,14.62-5.39,21.17-9.95c6.47-4.52,11.01-9.28,13.94-14.21
	c2.92-4.94,4.22-10.05,4.22-15.14c0-5.28-1.38-10.54-3.66-15.69c-3.44-7.7-8.93-15.12-15.11-22c-6.17-6.86-13.03-13.16-19.22-18.56
	c-10.03-8.75-18.15-16.54-23.72-24.56c-5.57-8.03-8.62-16.24-8.62-26.07c0-8.66,2.4-18.61,7.72-30.72
	c5.36-12.2,13.6-22.92,19.94-34.94c13.5-25.61,16.59-50.52,18.97-79.11c0.06-0.65-0.42-1.21-1.07-1.27
	c-0.65-0.06-1.21,0.42-1.27,1.07L349.36,46.9z M359.28,42.16c-5.16,44.82-21.87,78.87-35.8,120.89
	c-4.33,13.07-6.53,23.64-6.53,32.74c0,10.63,3.05,19.26,9.13,27.19c6.08,7.94,15.1,15.23,27.09,23.53
	c9.78,6.77,19.6,14.55,26.93,23.02c3.67,4.23,6.69,8.63,8.81,13.15c2.11,4.52,3.3,9.15,3.3,13.87c0,4.8-1.23,9.73-4.03,14.8
	c-2.8,5.07-7.21,10.3-13.59,15.62c-5.68,4.75-12.5,8.04-19.37,11.36s-13.8,6.64-19.64,11.55c-4.95,4.18-8.45,8.02-10.73,11.77
	c-2.29,3.74-3.33,7.41-3.32,11.06c0,4.71,1.7,9.32,4.38,14.22c2.7,4.92,6.41,10.17,10.62,16.18c0.38,0.53,1.11,0.66,1.64,0.29
	c0.53-0.38,0.66-1.11,0.29-1.64c-4.21-6.02-7.88-11.23-10.48-15.96c-2.59-4.74-4.09-8.98-4.09-13.09c0-3.21,0.88-6.39,2.98-9.84
	c2.1-3.44,5.41-7.12,10.24-11.19c5.53-4.66,12.27-7.93,19.15-11.23c6.87-3.32,13.88-6.68,19.87-11.68
	c6.54-5.46,11.15-10.89,14.13-16.28c2.98-5.39,4.32-10.73,4.32-15.95c0-5.13-1.3-10.11-3.52-14.87
	c-3.35-7.16-8.79-13.86-15.23-20.07c-6.45-6.2-13.89-11.93-21.29-17.04c-11.93-8.26-20.76-15.43-26.56-23.02
	c-5.8-7.61-8.64-15.57-8.65-25.76c0-8.72,2.12-19.07,6.41-32c13.85-41.84,30.67-76.07,35.89-121.37c0.07-0.65-0.39-1.23-1.04-1.31
	c-0.65-0.07-1.23,0.39-1.31,1.04H359.28z M366.72,37.8c-6.68,45.94-22.35,87.74-32.77,132.85c-2.7,11.7-4.25,21.35-4.25,29.63
	c0,5.46,0.67,10.32,2.16,14.77c2.22,6.66,6.25,12.34,12.31,17.55c6.07,5.23,14.16,10.03,24.65,15.1
	c11.94,5.78,21.91,12.53,28.85,20.07c6.95,7.55,10.85,15.83,10.86,24.82c0,5.46-1.45,11.22-4.62,17.28
	c-3.17,6.06-8.08,12.43-15,19.06c-4.86,4.66-11.18,8.49-17.39,12.49c-6.2,4.01-12.3,8.2-16.66,13.75
	c-5.93,7.55-8.38,14.51-8.38,21.2c0,6.64,2.39,12.91,5.87,19.27c3.49,6.36,8.08,12.85,12.64,19.93c0.35,0.54,1.08,0.71,1.63,0.35
	c0.54-0.35,0.71-1.08,0.35-1.63c-4.61-7.15-9.18-13.6-12.56-19.79c-3.39-6.19-5.59-12.08-5.57-18.14c0-6.1,2.19-12.47,7.87-19.74
	c4.03-5.17,9.91-9.25,16.07-13.22c6.16-3.99,12.61-7.86,17.75-12.76c7.05-6.76,12.12-13.32,15.46-19.67
	c3.32-6.35,4.89-12.5,4.89-18.38c0-9.7-4.25-18.58-11.49-26.42c-7.24-7.86-17.44-14.73-29.55-20.59
	c-13.86-6.7-23.33-12.87-29.28-19.88c-2.98-3.5-5.09-7.23-6.48-11.38c-1.38-4.15-2.04-8.75-2.04-14.02c0-7.99,1.51-17.48,4.2-29.1
	c10.37-44.91,26.08-86.77,32.82-133.04c0.09-0.65-0.35-1.24-1-1.33c-0.65-0.09-1.24,0.35-1.33,1L366.72,37.8z M375.26,36.05
	c-8.4,46.36-22.61,91.49-30.57,138.11c-1.7,9.97-5.49,22.77-5.49,34.73c0,6.92,1.29,13.62,5.1,19.27
	c4.25,6.29,10.95,10.06,18.08,12.81c7.13,2.75,14.74,4.48,20.94,6.52c13.53,4.45,23.79,9.94,30.61,16.44
	c6.82,6.51,10.24,13.92,10.25,22.53c0,5.68-1.52,11.9-4.65,18.69c-3.14,6.78-7.91,14.12-14.36,21.98
	c-4.31,5.27-10.07,10.07-15.62,15.07c-5.56,5.01-10.94,10.23-14.42,16.46c-4.09,7.3-5.8,14.17-5.8,20.72
	c0,8.2,2.65,15.88,6.46,23.48c3.81,7.61,8.78,15.17,13.53,23.16c0.33,0.56,1.06,0.74,1.61,0.41c0.55-0.33,0.74-1.06,0.41-1.62
	c-4.78-8.06-9.72-15.58-13.45-23.01c-3.72-7.43-6.21-14.74-6.21-22.42c0-6.15,1.58-12.56,5.5-19.57c3.25-5.83,8.44-10.9,13.95-15.86
	c5.52-4.96,11.36-9.81,15.87-15.33c6.55-7.98,11.43-15.47,14.68-22.49c3.25-7.02,4.88-13.57,4.88-19.68
	c0-9.26-3.78-17.4-10.98-24.24c-7.2-6.84-17.77-12.46-31.5-16.97c-6.36-2.09-13.92-3.81-20.83-6.48
	c-6.93-2.66-13.14-6.26-16.97-11.94c-3.46-5.12-4.7-11.31-4.7-17.95c0-11.49,3.71-24.18,5.46-34.35
	c7.91-46.41,22.11-91.54,30.55-138.09c0.12-0.64-0.31-1.25-0.95-1.37c-0.64-0.12-1.25,0.31-1.37,0.96L375.26,36.05z M384.33,36.57
	c-10.92,48.04-23.41,95.06-29.46,144.12c-1.32,10.7-2.23,19.38-2.23,26.61c0,5.79,0.58,10.64,2.05,14.81
	c1.1,3.13,2.71,5.86,4.91,8.26c3.3,3.6,7.9,6.4,14.05,8.83c6.16,2.44,13.9,4.52,23.63,6.62c7.05,1.52,15.85,2.44,23.77,4.84
	c3.96,1.19,7.67,2.74,10.83,4.87c3.16,2.14,5.75,4.82,7.53,8.37c1.52,3.05,2.18,6.49,2.18,10.15c0,6.49-2.07,13.69-4.82,20.43
	c-2.74,6.73-6.16,13.02-8.78,17.75c-4.57,8.29-11.36,16.26-17.85,24.45c-6.49,8.18-12.7,16.58-16.07,25.86
	c-2.11,5.84-3.03,11.5-3.03,16.98c0,10.11,3.08,19.63,7.37,28.83c4.29,9.2,9.79,18.12,14.73,27.02c0.32,0.57,1.04,0.78,1.6,0.46
	c0.57-0.32,0.78-1.04,0.46-1.6c-4.98-8.98-10.45-17.85-14.66-26.87c-4.21-9.03-7.14-18.21-7.14-27.83c0-5.24,0.86-10.6,2.89-16.18
	c3.19-8.83,9.24-17.07,15.7-25.19c6.46-8.14,13.33-16.18,18.06-24.77c2.63-4.75,6.08-11.11,8.9-18c2.82-6.9,5-14.33,5-21.31
	c0-3.95-0.71-7.76-2.43-11.22c-1.98-3.95-4.89-6.96-8.32-9.27c-5.14-3.47-11.42-5.39-17.7-6.76c-6.28-1.37-12.57-2.17-17.71-3.28
	c-8.59-1.86-15.58-3.69-21.21-5.73c-4.22-1.53-7.68-3.17-10.48-5.02c-4.2-2.78-6.9-5.97-8.64-10.04c-1.73-4.08-2.46-9.09-2.46-15.43
	c0-7.03,0.9-15.65,2.2-26.31c6.02-48.84,18.48-95.79,29.42-143.88c0.14-0.64-0.25-1.26-0.88-1.42c-0.64-0.14-1.26,0.25-1.41,0.88
	L384.33,36.57z M393.84,39.1c-13.95,47.61-22.68,93.17-27.49,142.34c-0.38,3.86-1.53,9.18-2.59,14.93
	c-1.06,5.75-2.04,11.97-2.04,17.74c0,5.51,0.87,10.65,3.58,14.6c2.5,3.65,5.8,6.24,9.51,8.08c5.57,2.76,12.05,3.87,18.48,4.46
	c6.42,0.59,12.79,0.65,18.06,1.23c6.79,0.73,15.9,0.59,24.23,2.03c4.16,0.72,8.12,1.83,11.47,3.6c3.36,1.77,6.09,4.18,7.97,7.54
	c1.39,2.51,2,5.6,2,9.06c0,6.9-2.47,15.2-5.5,22.85c-3.03,7.64-6.59,14.62-8.68,19.08c-4.25,9.01-10.39,18.14-16.1,27.53
	c-5.69,9.39-10.94,19.04-13.32,29.18c-1.07,4.6-1.56,9.12-1.56,13.55c0,11.83,3.43,23.08,8.15,33.9
	c4.73,10.82,10.76,21.22,16.04,31.37c0.31,0.58,1.01,0.8,1.59,0.49c0.58-0.31,0.8-1.01,0.49-1.59
	c-5.33-10.21-11.32-20.58-15.97-31.23c-4.65-10.65-7.95-21.58-7.95-32.95c0-4.27,0.46-8.6,1.5-13.02
	c2.27-9.72,7.39-19.18,13.04-28.49c5.66-9.32,11.84-18.49,16.2-27.74c2.07-4.4,5.67-11.45,8.74-19.23
	c3.08-7.77,5.67-16.26,5.67-23.72c0-3.73-0.66-7.22-2.31-10.2c-2.11-3.82-5.26-6.55-8.92-8.47c-5.5-2.89-12.16-4.07-18.69-4.68
	c-6.53-0.61-12.94-0.67-17.85-1.2c-7.27-0.78-16.15-0.64-24.33-2.01c-4.09-0.68-7.99-1.74-11.42-3.44c-3.43-1.7-6.36-4.03-8.61-7.3
	c-2.3-3.33-3.17-8.01-3.17-13.27c0-5.51,0.94-11.59,2-17.31c1.05-5.72,2.21-11.04,2.62-15.13c4.8-49.03,13.5-94.43,27.41-141.9
	c0.19-0.63-0.18-1.29-0.8-1.46c-0.62-0.19-1.28,0.18-1.46,0.8L393.84,39.1z M404.85,43.22c-17.92,45.57-21.46,88.28-25.73,136.24
	c-0.34,3.77-1.53,9.15-2.66,14.97c-1.12,5.83-2.17,12.12-2.17,17.93c0,5.33,0.87,10.28,3.58,14.02c3.55,4.91,8.72,7.71,14.43,9.27
	c5.73,1.57,12.03,1.92,18.09,1.93c5.58,0,10.96-0.31,15.4-0.31h0.49c4.47,0,10.28-0.43,16.32-0.43c5.76,0,11.73,0.39,16.82,1.85
	c2.55,0.73,4.87,1.72,6.85,3.04c1.98,1.32,3.63,2.97,4.85,5.05c1.23,2.08,1.79,4.82,1.79,8.03c0,7.23-2.88,16.63-6.22,25.17
	c-3.35,8.55-7.12,16.24-8.85,20.36c-4.07,9.65-9.7,19.63-14.71,29.89c-5.01,10.26-9.42,20.82-10.97,31.67
	c-0.51,3.55-0.74,7.07-0.74,10.54c0.01,26.01,13.09,50.02,23.99,72.3c0.28,0.59,0.99,0.83,1.58,0.54c0.59-0.28,0.83-0.99,0.54-1.58
	c-10.96-22.34-23.77-46.07-23.74-71.26c0-3.37,0.22-6.77,0.72-10.2c1.5-10.44,5.79-20.79,10.76-30.97
	c4.97-10.18,10.62-20.19,14.77-30c1.68-3.99,5.49-11.76,8.87-20.42c3.38-8.67,6.36-18.21,6.38-26.03c0-3.48-0.6-6.65-2.12-9.24
	c-1.43-2.41-3.35-4.32-5.57-5.82c-3.36-2.24-7.4-3.54-11.7-4.31c-4.3-0.77-8.86-0.98-13.27-0.98c-6.14,0-12,0.42-16.32,0.42h-0.5
	c-4.55,0-9.9,0.31-15.4,0.31c-5.96,0-12.08-0.37-17.46-1.84c-5.4-1.49-10-4.03-13.15-8.39c-2.26-3.09-3.14-7.56-3.12-12.64
	c0-5.52,1.01-11.7,2.13-17.48c1.12-5.79,2.32-11.16,2.7-15.2c4.28-47.98,7.8-90.39,25.57-135.58c0.24-0.6-0.06-1.29-0.66-1.53
	c-0.6-0.24-1.29,0.06-1.53,0.66H404.85z M422.95,51.01c-11.5,20.52-17.63,39.97-21.46,59.92c-3.82,19.96-5.35,40.41-7.68,63.03
	c-0.39,3.87-1.74,9.28-3.01,15.13c-1.26,5.85-2.43,12.15-2.43,17.93c0,4.95,0.86,9.57,3.43,13.15c3.26,4.54,7.92,7.28,13.12,8.86
	c5.2,1.58,10.97,2.05,16.66,2.05c7.44,0,14.77-0.8,20.45-1.04c5.6-0.24,13.68-1.32,21.7-1.32c5.17,0,10.29,0.45,14.61,1.83
	c4.34,1.38,7.81,3.62,9.97,7.21c1.07,1.77,1.58,4.24,1.58,7.18c0,3.73-0.81,8.2-2.1,12.89c-1.93,7.04-4.93,14.59-7.73,21.08
	c-2.8,6.5-5.4,11.92-6.57,14.85c-4.02,9.98-9.32,20.39-13.86,31.1c-4.54,10.71-8.33,21.74-9.27,32.96
	c-0.17,2.02-0.25,4.03-0.25,6.04c0,13.93,3.9,27.43,9.17,40.43c5.26,13,11.88,25.5,17.38,37.42c0.27,0.59,0.98,0.85,1.57,0.58
	c0.59-0.27,0.85-0.98,0.58-1.57c-5.54-12.01-12.14-24.47-17.33-37.33c-5.2-12.84-8.99-26.07-8.99-39.55c0-1.95,0.08-3.89,0.25-5.84
	c0.91-10.83,4.6-21.63,9.1-32.25c4.5-10.61,9.8-21.03,13.87-31.14c0.74-1.85,2.16-4.92,3.85-8.68c2.54-5.65,5.7-12.89,8.25-20.22
	c2.53-7.32,4.47-14.72,4.48-20.82c0-3.21-0.53-6.09-1.92-8.4c-2.52-4.2-6.6-6.76-11.28-8.23c-4.69-1.49-10.02-1.93-15.33-1.93
	c-8.21,0-16.39,1.1-21.8,1.32c-5.8,0.24-13.07,1.03-20.34,1.03c-5.56,0-11.12-0.46-15.98-1.95c-4.86-1.49-8.99-3.95-11.89-7.99
	c-2.14-2.96-2.98-7.08-2.98-11.77c0-5.46,1.13-11.63,2.38-17.43c1.25-5.82,2.62-11.24,3.04-15.39c2.33-22.67,3.85-43.06,7.65-62.83
	c3.8-19.78,9.83-38.93,21.2-59.21c0.32-0.57,0.12-1.29-0.45-1.6c-0.57-0.32-1.28-0.12-1.6,0.45L422.95,51.01z M447.12,61.69
	c-14.56,16.52-22.01,31.93-26.56,48.3c-4.55,16.37-6.24,33.67-9.39,54.18c-0.62,4.09-2.26,9.52-3.75,15.31
	c-1.48,5.79-2.83,11.95-2.84,17.67c0,4.47,0.83,8.72,3.17,12.22c3.42,5.12,8.41,8.2,14,9.96c5.6,1.77,11.83,2.26,17.96,2.26
	c7.25,0,14.35-0.71,20.02-0.92c5.79-0.24,14.02-1.33,22.16-1.33c5.33,0,10.59,0.47,15.04,1.93c4.44,1.46,8.01,3.85,10.22,7.68
	c0.95,1.65,1.41,3.92,1.41,6.63c0,3.83-0.92,8.53-2.38,13.48c-2.19,7.44-5.57,15.49-8.72,22.4c-3.15,6.92-6.04,12.68-7.31,15.7
	c-4.08,9.8-9.31,20.1-13.69,30.71c-4.37,10.62-7.92,21.57-8.55,32.72c-0.07,1.3-0.11,2.61-0.11,3.9c0,13.8,4.04,27.69,9.32,41.09
	c5.29,13.4,11.83,26.31,16.92,38.13c0.26,0.6,0.96,0.87,1.54,0.61c0.6-0.26,0.87-0.95,0.61-1.54c-5.13-11.92-11.67-24.8-16.9-38.07
	c-5.23-13.26-9.17-26.88-9.16-40.22c0-1.26,0.04-2.51,0.11-3.77c0.61-10.73,4.04-21.44,8.38-31.95
	c4.34-10.51,9.56-20.79,13.68-30.71c0.79-1.9,2.36-5.13,4.24-9.13c2.84-5.99,6.41-13.72,9.29-21.49c2.86-7.77,5.05-15.57,5.07-21.88
	c0-2.96-0.48-5.63-1.73-7.8c-2.56-4.46-6.73-7.17-11.52-8.74c-4.81-1.57-10.3-2.04-15.77-2.05c-8.34,0-16.67,1.12-22.26,1.33
	c-5.77,0.22-12.83,0.92-19.93,0.92c-6,0-12.01-0.5-17.25-2.16c-5.24-1.66-9.69-4.43-12.75-9.02c-1.99-2.97-2.78-6.72-2.77-10.91
	c0-5.35,1.29-11.36,2.76-17.08c1.47-5.73,3.12-11.17,3.79-15.53c3.16-20.59,4.86-37.82,9.33-53.91
	c4.48-16.09,11.71-31.08,26.05-47.37c0.44-0.48,0.39-1.24-0.11-1.66c-0.48-0.44-1.24-0.39-1.66,0.11L447.12,61.69z M465.83,68.19
	c-10.89,12.51-16.72,24.37-20.66,36.87c-3.95,12.5-6.02,25.62-9.45,40.83c-1.24,5.52-3.69,11.76-5.83,18.2
	c-2.15,6.44-4.01,13.09-4.02,19.53c0,5.87,1.59,11.6,5.95,16.61c2.32,2.67,5.46,4.54,8.97,5.91c5.28,2.04,11.48,2.94,17.39,3.42
	c5.92,0.48,11.56,0.55,15.64,0.86c7.41,0.57,16.36,0.46,24.51,1.93c4.08,0.73,7.93,1.85,11.29,3.61c3.36,1.76,6.21,4.14,8.36,7.43
	c2.43,3.74,3.44,8.1,3.44,12.91c0,8.43-3.16,18.14-7,27.41c-3.84,9.28-8.33,18.11-10.89,24.99c-4.68,12.65-11.25,27.03-11.26,41.36
	c0,0.15,0,0.31,0,0.46c0.14,13.59,5.96,27.7,13.2,41.14c7.24,13.43,15.92,26.18,21.88,36.88c0.32,0.57,1.04,0.78,1.6,0.46
	c0.57-0.32,0.78-1.04,0.46-1.6c-6.04-10.84-14.71-23.57-21.87-36.86c-7.17-13.29-12.8-27.13-12.92-40.04c0-0.14,0-0.29,0-0.44
	c-0.01-13.6,6.38-27.78,11.12-40.54c2.47-6.68,6.96-15.53,10.85-24.91c3.88-9.39,7.18-19.3,7.19-28.31c0-5.13-1.08-10-3.82-14.2
	c-2.38-3.67-5.6-6.33-9.24-8.23c-5.48-2.85-11.92-4.07-18.37-4.71c-6.45-0.64-12.89-0.67-18.33-1.1c-5.61-0.42-13.72-0.4-21.46-1.5
	c-3.86-0.54-7.62-1.37-10.91-2.63c-3.29-1.27-6.07-2.97-8.04-5.25c-3.94-4.54-5.36-9.6-5.37-15.06c0-5.99,1.77-12.43,3.89-18.79
	c2.12-6.37,4.58-12.64,5.89-18.42c3.45-15.3,5.53-28.37,9.39-40.63c3.88-12.27,9.52-23.75,20.18-36.03c0.42-0.5,0.38-1.24-0.12-1.66
	s-1.24-0.38-1.66,0.12L465.83,68.19z M488.56,72.83c-9.69,9.67-14.92,21.31-18.84,33.44c-3.92,12.14-6.55,24.79-10.95,36.66
	c-1.79,4.86-5,10.23-7.78,15.84c-2.78,5.61-5.17,11.49-5.17,17.51c0,3.51,0.84,7.06,2.88,10.51c1.92,3.24,4.57,5.83,7.62,7.88
	c4.58,3.09,10.08,5.05,15.55,6.51c5.48,1.45,10.96,2.39,15.51,3.36c6.35,1.36,14.58,2.44,22.22,4.67c3.82,1.11,7.49,2.5,10.69,4.32
	c3.21,1.82,5.94,4.06,7.93,6.86c3.32,4.67,4.62,10.05,4.62,15.88c0,7.93-2.44,16.63-5.42,25c-2.98,8.39-6.47,16.42-8.51,23.18
	c-2.9,9.67-4.21,18.27-4.21,26.17c0,15.12,4.81,27.66,12.23,40.22c7.42,12.57,17.44,25.22,28.01,40.75c0.36,0.54,1.1,0.67,1.64,0.31
	c0.54-0.36,0.67-1.1,0.31-1.64c-10.63-15.62-20.62-28.26-27.93-40.62c-7.29-12.37-11.9-24.42-11.9-39.03c0-7.64,1.26-16,4.11-25.5
	c1.96-6.55,5.46-14.59,8.46-23.07c3-8.48,5.55-17.39,5.56-25.79c0-6.17-1.4-12.11-5.07-17.24c-2.25-3.15-5.27-5.6-8.68-7.55
	c-5.14-2.91-11.19-4.71-17.15-6.04c-5.94-1.33-11.78-2.21-16.44-3.2c-6.15-1.31-13.76-2.54-20.68-4.93
	c-3.45-1.19-6.73-2.68-9.56-4.59c-2.83-1.91-5.21-4.23-6.92-7.12c-1.83-3.09-2.54-6.17-2.54-9.31c0-5.38,2.19-10.96,4.92-16.46
	c2.73-5.51,5.96-10.91,7.88-16.06c4.47-12.08,7.11-24.78,10.97-36.75c3.88-11.98,8.96-23.2,18.27-32.49c0.46-0.46,0.46-1.2,0-1.66
	c-0.46-0.46-1.2-0.46-1.66,0H488.56z M514.29,75.73c-7.53,8.55-12.2,19-16.36,29.65c-4.16,10.65-7.84,21.53-13.28,30.98
	c-4.23,7.36-7.71,13.94-10.15,19.93c-2.43,5.98-3.83,11.38-3.83,16.36c0,3.09,0.54,6.03,1.72,8.79c1.77,4.14,4.91,7.87,9.59,11.26
	c4.68,3.41,10.88,6.51,18.85,9.49c6.41,2.39,14.08,4.68,21.06,7.94c6.99,3.25,13.23,7.46,16.9,13.55
	c3.11,5.17,4.31,10.78,4.31,16.69c0,7.34-1.87,15.08-4.17,22.69c-2.3,7.61-5.02,15.06-6.67,21.88c-1.39,5.78-2.04,11.2-2.04,16.33
	c0,16.32,6.52,29.62,15.71,42.19c9.19,12.59,21.04,24.52,31.97,38.33c0.4,0.51,1.14,0.6,1.65,0.19c0.51-0.4,0.6-1.14,0.19-1.65
	c-11.03-13.94-22.88-25.89-31.91-38.26c-9.04-12.38-15.25-25.12-15.25-40.8c0-4.93,0.61-10.17,1.97-15.79
	c1.59-6.63,4.3-14.06,6.63-21.75c2.32-7.69,4.27-15.64,4.27-23.38c0-6.22-1.27-12.31-4.65-17.9c-4.05-6.7-10.73-11.11-17.92-14.47
	c-7.19-3.35-14.94-5.66-21.23-8.01c-10.46-3.9-17.68-8.01-22.19-12.48c-2.26-2.23-3.87-4.55-4.9-6.99
	c-1.04-2.45-1.53-5.04-1.53-7.85c0-4.53,1.3-9.65,3.66-15.48c2.37-5.81,5.8-12.32,10-19.64c5.6-9.74,9.3-20.72,13.43-31.3
	c4.14-10.59,8.71-20.76,15.93-28.96c0.44-0.48,0.39-1.24-0.11-1.66C515.47,75.19,514.72,75.24,514.29,75.73L514.29,75.73z
	 M539.86,77.32c-6,9.01-9.03,18.45-12.41,27.54c-3.37,9.09-7.08,17.82-14.34,25.67c-7.02,7.58-12.8,14.54-16.84,21.15
	c-4.04,6.59-6.38,12.87-6.38,19.05c0,5.52,1.9,10.9,5.93,16.15c4.03,5.25,10.16,10.41,18.71,15.71c7.87,4.86,16.33,8.96,23.28,14.29
	c6.95,5.35,12.4,11.84,14.51,21.68c0.54,2.56,0.78,5.14,0.78,7.76c0,7.5-1.96,15.23-4.14,22.94c-2.18,7.72-4.57,15.43-5.35,22.95
	c-0.18,1.7-0.26,3.36-0.26,5.01c0,8.53,2.23,16.45,5.88,23.88c5.47,11.15,14.12,21.2,23.32,30.7c9.2,9.49,18.98,18.43,26.77,27.27
	c0.44,0.48,1.18,0.53,1.66,0.11c0.48-0.44,0.53-1.18,0.11-1.66c-10.55-11.96-24.45-23.89-35.68-36.95
	c-5.61-6.52-10.55-13.32-14.07-20.5c-3.52-7.18-5.63-14.73-5.63-22.85c0-1.57,0.08-3.16,0.25-4.78c0.73-7.2,3.08-14.79,5.27-22.54
	c2.19-7.76,4.23-15.67,4.23-23.59c0-2.76-0.25-5.52-0.84-8.26c-2.23-10.49-8.15-17.54-15.37-23.06
	c-7.22-5.53-15.76-9.65-23.48-14.44c-8.4-5.2-14.32-10.21-18.09-15.15c-3.77-4.93-5.43-9.73-5.43-14.71
	c0-5.57,2.12-11.43,6.03-17.82c3.9-6.38,9.58-13.25,16.56-20.77c7.59-8.2,11.42-17.29,14.82-26.44c3.39-9.16,6.38-18.38,12.16-27.04
	c0.36-0.54,0.21-1.27-0.33-1.64S540.23,76.77,539.86,77.32L539.86,77.32z M570.2,77.02c-4.48,11.63-7.67,20.82-12.02,29.17
	c-4.35,8.35-9.83,15.9-18.99,24.38c-8.06,7.47-15.15,14.66-20.27,21.88c-5.11,7.22-8.27,14.49-8.27,22.06
	c0,4.89,1.34,9.87,4.24,14.92c2.91,5.05,7.36,10.17,13.62,15.45c5.71,4.82,12.07,9.26,17.71,14.25c5.66,4.99,10.58,10.5,13.54,17.44
	c2.33,5.47,3.19,10.88,3.19,16.29c0,6.69-1.32,13.41-2.82,20.23c-1.48,6.82-3.15,13.72-3.74,20.81c-0.12,1.4-0.18,2.8-0.18,4.18
	c0,8.94,2.39,17.15,6.32,24.74c5.88,11.41,15.18,21.5,25.11,31.02c9.93,9.52,20.53,18.47,29.05,27.49c0.45,0.47,1.19,0.49,1.66,0.05
	s0.49-1.19,0.05-1.66c-11.52-12.21-26.55-24.08-38.64-37.21c-6.04-6.56-11.35-13.42-15.13-20.77c-3.78-7.35-6.04-15.14-6.04-23.67
	c0-1.31,0.06-2.63,0.17-3.98c0.56-6.84,2.18-13.65,3.69-20.5c1.5-6.84,2.88-13.73,2.88-20.73c0-5.66-0.91-11.41-3.38-17.21
	c-3.16-7.41-8.37-13.19-14.15-18.28c-5.79-5.11-12.16-9.55-17.76-14.28c-6.1-5.15-10.38-10.1-13.1-14.83
	c-2.72-4.74-3.92-9.27-3.92-13.74c0-6.89,2.89-13.71,7.84-20.7c4.95-6.98,11.94-14.11,19.95-21.51
	c9.33-8.63,15.04-16.47,19.49-25.03c4.45-8.56,7.66-17.82,12.12-29.4c0.24-0.61-0.07-1.29-0.67-1.52c-0.61-0.24-1.28,0.07-1.52,0.67
	L570.2,77.02z M602.4,74.04c-1.01,13.49-4.61,23.53-10.51,32.27c-5.9,8.73-14.16,16.17-24.53,24.23
	c-9.63,7.49-18.78,14.99-25.57,22.99c-3.39,4-6.2,8.13-8.17,12.46c-1.97,4.33-3.09,8.86-3.09,13.61c0,8.83,3.86,18.32,12.88,28.7
	c5.03,5.8,10.73,11.12,15.8,16.82c5.08,5.68,9.51,11.74,12.1,18.98c1.93,5.38,2.63,10.63,2.63,15.84
	c0.01,13.08-4.5,26.03-5.15,40.03c-0.04,0.77-0.05,1.53-0.05,2.3c0,9.05,2.46,17.4,6.48,25.17c6.03,11.65,15.54,22.01,25.67,31.66
	c10.12,9.65,20.86,18.6,29.35,27.34c0.46,0.47,1.2,0.47,1.66,0.02c0.47-0.46,0.47-1.2,0.02-1.66c-11.5-11.81-26.77-23.8-39.12-37.2
	c-6.17-6.7-11.62-13.73-15.49-21.23c-3.88-7.5-6.21-15.46-6.21-24.08c0-0.73,0.01-1.45,0.05-2.19c0.6-13.55,5.14-26.53,5.15-40.14
	c0-5.44-0.74-10.97-2.77-16.64c-2.75-7.65-7.4-13.95-12.56-19.74c-5.17-5.79-10.86-11.11-15.79-16.79
	c-8.78-10.12-12.3-19.04-12.3-27.15c0-4.38,1.02-8.56,2.88-12.63c2.77-6.11,7.41-11.96,13.19-17.68s12.66-11.29,19.86-16.89
	c10.44-8.11,18.91-15.7,25.04-24.77c6.14-9.07,9.88-19.6,10.91-33.41c0.05-0.65-0.44-1.21-1.08-1.26
	C603.01,72.9,602.45,73.39,602.4,74.04L602.4,74.04z M631.22,68.43c0.88,3.97,1.3,7.73,1.3,11.26c0,12.35-4.97,22.36-12.55,31.23
	c-11.37,13.29-28.62,23.8-43.14,34.94c-7.26,5.57-13.83,11.31-18.64,17.71c-4.8,6.4-7.82,13.52-7.81,21.69
	c0,7.9,2.8,16.7,9.29,26.76c4.93,7.64,10.6,14.38,15.48,21.47c4.88,7.09,8.94,14.49,10.76,23.54c0.7,3.49,0.98,6.95,0.98,10.4
	c0,11.88-3.37,23.65-4.3,35.95c-0.11,1.36-0.15,2.69-0.15,4.01c0,9.35,2.46,18.01,6.5,26.05c6.07,12.07,15.66,22.81,25.92,32.84
	c10.26,10.02,21.22,19.32,30.04,28.42c0.45,0.47,1.2,0.48,1.66,0.02c0.47-0.45,0.48-1.2,0.02-1.66
	c-11.91-12.28-27.42-24.74-39.91-38.64c-6.25-6.95-11.73-14.25-15.64-22.03s-6.26-16.05-6.26-24.99c0-1.26,0.05-2.55,0.14-3.83
	c0.88-11.98,4.29-23.8,4.3-36.13c0-3.57-0.29-7.2-1.02-10.86c-1.9-9.47-6.16-17.21-11.12-24.41c-4.97-7.21-10.63-13.92-15.45-21.4
	c-6.3-9.8-8.91-18.15-8.91-25.48c0-5.05,1.23-9.65,3.41-13.98c3.79-7.57,10.55-14.31,18.61-20.79c12.08-9.74,27.02-18.9,39.03-29.85
	c6-5.48,11.28-11.43,15.06-18.16c3.78-6.72,6.06-14.25,6.06-22.79c0-3.73-0.44-7.65-1.36-11.78c-0.14-0.64-0.78-1.04-1.4-0.9
	c-0.64,0.14-1.04,0.78-0.9,1.4L631.22,68.43z M658.42,59.58c2.93,5.97,4.23,12.1,4.23,18.21c0,10.21-3.65,20.42-9.46,29.55
	c-5.81,9.13-13.76,17.18-22.26,23.09c-10.49,7.3-22.15,11.82-32.68,18.09c-10.52,6.26-19.91,14.41-25.45,28.83
	c-1.87,4.87-2.69,9.35-2.69,13.66c0,8.2,2.92,15.68,6.75,24.21c3.68,8.16,8.57,15.12,12.95,22.22c4.38,7.1,8.27,14.34,10.09,23.1
	c0.9,4.33,1.24,8.61,1.24,12.89c0,11.95-2.7,23.85-3.26,36.35c-0.05,0.96-0.06,1.91-0.06,2.86c0,19.33,8.86,35.35,20.65,49.67
	c11.79,14.33,26.54,27.07,38.57,39.94c0.45,0.47,1.19,0.5,1.66,0.06c0.47-0.45,0.49-1.19,0.06-1.66
	c-12.15-12.99-26.86-25.7-38.46-39.82c-11.62-14.13-20.12-29.59-20.12-48.17c0-0.91,0.02-1.83,0.06-2.75
	c0.54-12.22,3.26-24.15,3.28-36.46c0-4.4-0.35-8.85-1.3-13.36c-1.91-9.18-5.96-16.69-10.39-23.86c-4.44-7.18-9.25-14.05-12.81-21.95
	c-3.82-8.48-6.55-15.63-6.55-23.25c0-4.01,0.75-8.19,2.53-12.81c5.35-13.83,14.18-21.49,24.46-27.65
	c10.29-6.15,22.02-10.7,32.82-18.19c8.76-6.1,16.91-14.34,22.9-23.76c5.99-9.42,9.83-20.03,9.83-30.81c0-6.45-1.38-12.95-4.48-19.25
	c-0.28-0.59-0.99-0.83-1.58-0.54c-0.59,0.28-0.83,0.99-0.54,1.58L658.42,59.58z M679.28,49.24c6.72,9.31,9.58,19.14,9.58,28.91
	c0,11.36-3.89,22.63-10.22,32.72c-6.33,10.08-15.07,18.94-24.71,25.44c-12.69,8.56-28.03,15.83-40.31,24.92
	c-6.14,4.55-11.51,9.58-15.38,15.5c-3.86,5.92-6.19,12.75-6.17,20.77c0,5.88,1.24,12.41,3.98,19.7c3.31,8.8,8.26,16.43,12.71,24.18
	c4.45,7.76,8.42,15.62,9.91,24.9c0.54,3.41,0.77,6.84,0.77,10.3c0,9.88-1.79,19.92-2.7,29.89c-0.25,2.71-0.37,5.37-0.37,7.96
	c0,21.08,7.85,38.14,19.08,53.75c11.23,15.62,25.82,29.82,39.47,45.34c0.44,0.48,1.18,0.53,1.66,0.11c0.48-0.44,0.53-1.18,0.11-1.66
	c-13.74-15.6-28.28-29.78-39.33-45.16c-11.05-15.39-18.63-31.9-18.63-52.38c0-2.52,0.12-5.11,0.35-7.75
	c0.88-9.84,2.7-19.93,2.71-30.1c0-3.55-0.22-7.11-0.79-10.67c-1.57-9.73-5.7-17.88-10.19-25.7c-4.5-7.83-9.37-15.35-12.55-23.84
	c-2.65-7.08-3.83-13.32-3.83-18.87c0-7.56,2.16-13.89,5.8-19.48c5.46-8.39,14.35-15.1,24.35-21.3c9.98-6.22,21.01-11.91,30.7-18.45
	c9.91-6.69,18.88-15.77,25.39-26.15c6.52-10.38,10.57-22.07,10.57-33.97c0-10.24-3.03-20.6-10.03-30.29
	c-0.38-0.53-1.12-0.65-1.65-0.26c-0.53,0.38-0.65,1.12-0.26,1.65L679.28,49.24z M699.76,34.45c9.74,13.82,14.69,29.64,14.69,45.18
	c0,21.61-9.53,42.68-29.11,57.31c-5.95,4.45-13.35,8.49-21.1,12.57c-11.64,6.12-24.07,12.29-33.69,20.17
	c-4.81,3.94-8.92,8.32-11.83,13.34c-2.91,5.02-4.62,10.71-4.62,17.17c0,5.14,1.07,10.77,3.43,16.96
	c2.66,6.99,6.55,13.32,10.27,19.65c3.72,6.32,7.29,12.63,9.38,19.56c2.31,7.64,3.06,15.1,3.06,22.62c0,8.85-1.06,17.76-1.87,27.1
	c-0.31,3.47-0.45,6.83-0.45,10.12c0,22.39,6.82,40.75,17.2,57.86c10.38,17.13,24.31,33.04,38.6,50.7c0.41,0.51,1.15,0.59,1.66,0.18
	c0.51-0.41,0.58-1.15,0.18-1.66c-14.34-17.7-28.2-33.57-38.43-50.45c-10.23-16.89-16.86-34.75-16.86-56.65
	c0-3.21,0.14-6.51,0.44-9.91c0.81-9.28,1.89-18.27,1.89-27.3c0-7.68-0.78-15.38-3.17-23.31c-2.19-7.25-5.87-13.72-9.6-20.07
	c-3.75-6.35-7.55-12.57-10.1-19.28c-2.26-5.97-3.28-11.31-3.28-16.12c0-8.06,2.79-14.68,7.4-20.52
	c6.92-8.75,18.03-15.58,29.73-21.88c11.7-6.31,23.96-12.08,33.17-18.95c20.17-15.05,30.07-36.89,30.06-59.2
	c0-16.04-5.1-32.33-15.13-46.54c-0.38-0.53-1.11-0.66-1.64-0.28c-0.53,0.38-0.66,1.11-0.28,1.64L699.76,34.45z M714.56,18.61
	c15.04,17.68,24.09,40.9,24.09,63.48c0,20.97-7.77,41.35-25.76,56.48c-5.36,4.5-12.67,8.53-20.62,12.51
	c-11.93,5.98-25.29,11.87-35.75,19.43c-5.23,3.79-9.76,8-12.98,12.9c-3.23,4.9-5.15,10.5-5.15,16.91c0,4.25,0.84,8.85,2.65,13.83
	c2.97,8.19,7.84,15.32,12.46,22.48c4.62,7.16,8.99,14.32,11.12,22.53c1.33,5.14,1.83,10.39,1.83,15.69c0,9.45-1.55,19.07-2.56,28.57
	c-0.57,5.39-0.84,10.59-0.84,15.63c0,22.59,5.49,41.93,14.45,60.32c8.96,18.39,21.36,35.83,35.23,54.73
	c0.39,0.53,1.12,0.64,1.65,0.25c0.53-0.39,0.64-1.12,0.25-1.65c-13.86-18.88-26.17-36.22-35.01-54.36
	c-8.84-18.15-14.21-37.08-14.21-59.28c0-4.95,0.27-10.07,0.82-15.38c0.99-9.41,2.57-19.11,2.58-28.81c0-5.44-0.49-10.89-1.9-16.28
	c-2.25-8.65-6.79-16.03-11.43-23.21c-4.64-7.18-9.39-14.18-12.22-22c-1.73-4.78-2.51-9.09-2.51-13.03c0-7.91,3.1-14.35,8.18-20.01
	c7.62-8.48,19.78-15,32.15-21.09c12.36-6.1,24.89-11.76,33.34-18.84c18.56-15.58,26.61-36.74,26.59-58.29
	c0-23.2-9.26-46.91-24.65-65c-0.42-0.5-1.17-0.55-1.66-0.13c-0.49,0.42-0.55,1.17-0.13,1.66V18.61z M41.49,71.97
	c21.86-6.51,42.1-11.16,61.66-11.16c21.49,0,42.17,5.58,63.5,20.56c10.18,7.15,19.62,16.16,29.7,24.3
	c10.06,8.14,20.76,15.43,33.5,19c6.66,1.86,13.08,2.71,19.29,2.71c10.99,0,21.32-2.63,31.19-6.81c14.8-6.26,28.59-15.97,42.22-25.56
	c13.63-9.59,27.1-19.05,41.17-24.89c4.7-1.95,8.99-2.68,13.33-2.68c5.55,0,11.18,1.23,17.63,2.69c28.42,6.49,55.05,14.14,84.7,16.05
	c19.41,1.25,40.46,2.24,62.17,2.24c36.81,0,75.46-2.85,111.03-12.17c35.55-9.32,68.04-25.1,92.39-51c0.45-0.47,0.42-1.23-0.05-1.66
	c-0.47-0.45-1.21-0.42-1.66,0.05c-23.96,25.48-56.01,41.09-91.28,50.33c-35.27,9.24-73.74,12.09-110.42,12.09
	c-21.63,0-42.64-0.99-62.02-2.24c-29.32-1.89-55.82-9.49-84.32-16.01c-6.46-1.47-12.26-2.75-18.16-2.75c-4.6,0-9.25,0.79-14.23,2.87
	c-19.2,7.98-36.96,22.33-55.29,34.59c-9.17,6.15-18.46,11.77-28.12,15.85c-9.65,4.08-19.65,6.62-30.27,6.62
	c-6,0-12.2-0.81-18.65-2.62c-12.25-3.44-22.68-10.5-32.65-18.57c-9.97-8.06-19.44-17.1-29.81-24.39
	c-21.68-15.25-42.95-20.99-64.86-20.98c-19.94,0-40.39,4.73-62.33,11.25c-0.62,0.19-0.98,0.84-0.79,1.46
	c0.19,0.63,0.84,0.98,1.46,0.79L41.49,71.97z M44.37,86.49c19.44-5.87,38.07-9.88,56.18-9.88c20.48,0,40.3,5.1,60.12,18.45
	c10.52,7.09,20.22,16.49,30.41,25.24c10.19,8.75,20.9,16.88,33.54,21.3c7.59,2.65,14.94,3.81,22.09,3.81
	c10.24,0,20.04-2.38,29.54-6.12c14.26-5.61,27.86-14.3,41.34-22.73c13.48-8.44,26.84-16.65,40.54-21.39
	c6.08-2.11,11.69-2.77,17.53-2.77c4.48,0,9.08,0.4,14.1,0.84c28.75,2.55,56.64,3.9,85.53,3.9c1.08,0,2.18,0,3.28,0
	c4.5-0.01,9.04-0.02,13.6-0.02c5.07,0,10.18,0,15.32,0c42.06,0,86.49-0.33,129.37-6.33c42.87-6.02,84.19-17.72,119.95-40.53
	c0.55-0.35,0.71-1.07,0.37-1.63c-0.35-0.55-1.07-0.71-1.63-0.37c-35.36,22.56-76.35,34.19-119.01,40.17
	c-42.67,5.98-87.01,6.31-129.04,6.31c-5.15,0-10.25,0-15.32,0c-4.57,0-9.11,0-13.61,0.02c-1.1,0-2.18,0-3.26,0
	c-28.81,0-56.63-1.34-85.32-3.89c-5.02-0.45-9.7-0.85-14.3-0.85c-6.02,0-11.94,0.7-18.3,2.9c-18.71,6.49-36.46,19.09-54.52,30
	c-9.03,5.46-18.14,10.5-27.43,14.17c-9.31,3.67-18.82,5.96-28.68,5.96c-6.89,0-13.98-1.12-21.32-3.68
	c-12.17-4.26-22.66-12.17-32.78-20.86c-10.12-8.69-19.87-18.15-30.62-25.42c-20.19-13.62-40.57-18.86-61.44-18.85
	c-18.46,0-37.31,4.07-56.86,9.98c-0.62,0.19-0.98,0.85-0.79,1.47c0.19,0.63,0.85,0.98,1.47,0.79L44.37,86.49z M41.82,95.33
	c17.07-5.35,32.81-8.48,48.03-8.48c20.65,0,40.38,5.71,61.45,19.48c10.74,7.02,20.68,16.23,31.09,24.84
	c10.42,8.6,21.3,16.59,34,21.09c7.55,2.67,14.98,3.81,22.31,3.81c19.77,0,38.65-8.32,57.33-17.42
	c18.67-9.12,37.14-19.05,55.96-22.56c38.86-7.29,83.51-6.18,123.01-8.34c95.16-5.23,196.86,2.64,287.96-31.48
	c0.61-0.22,0.92-0.91,0.7-1.52c-0.22-0.61-0.91-0.92-1.52-0.7c-90.42,33.91-191.87,26.12-287.25,31.34
	c-39.38,2.16-84.1,1.04-123.32,8.39c-19.31,3.63-37.94,13.68-56.55,22.76c-18.62,9.09-37.2,17.2-56.29,17.18
	c-7.07,0-14.22-1.11-21.52-3.68c-12.26-4.33-22.94-12.14-33.29-20.69c-10.35-8.54-20.34-17.82-31.3-24.99
	c-21.38-13.99-41.67-19.87-62.75-19.86c-15.55,0-31.52,3.18-48.74,8.59c-0.62,0.2-0.97,0.86-0.77,1.47c0.2,0.63,0.86,0.97,1.47,0.77
	H41.82z M32.99,107.07c18.08-6.02,33.72-9.44,48.68-9.44c19.81,0,38.48,5.97,60.21,20.05c10.7,6.93,20.79,15.5,31.37,23.33
	c10.58,7.83,21.68,14.93,34.43,18.9c6.94,2.15,13.9,3.07,20.87,3.07c19.43,0,38.85-7.04,58.28-14.01
	c19.44-6.97,38.9-13.87,58.26-13.87c0.17,0,0.33,0,0.49,0c0.48,0,0.97,0,1.45,0c41.84,0,78.88-11.1,120.23-15.96
	c97.29-11.48,196.34,1.63,293.43-16.52c0.64-0.12,1.06-0.73,0.94-1.38c-0.12-0.64-0.73-1.06-1.38-0.94
	c-96.6,18.08-195.6,5-293.27,16.5c-41.61,4.91-78.55,15.95-119.95,15.95c-0.47,0-0.95,0-1.43,0c-0.16,0-0.34,0-0.51,0
	c-19.94,0-39.62,7.04-59.06,14.01c-19.44,6.97-38.65,13.87-57.49,13.87c-6.76,0-13.48-0.88-20.17-2.96
	c-12.36-3.83-23.23-10.77-33.74-18.54c-10.5-7.76-20.62-16.36-31.5-23.41c-21.98-14.26-41.2-20.44-61.5-20.43
	c-15.32,0-31.23,3.5-49.42,9.55c-0.61,0.2-0.95,0.87-0.74,1.49c0.2,0.61,0.87,0.96,1.48,0.74L32.99,107.07z M16.56,118.69
	c18.97-6.71,35.9-10.59,52.34-10.59c19.1,0,37.58,5.21,58.02,17.43c11.16,6.68,21.76,14.87,32.82,22.39
	c11.05,7.5,22.55,14.32,35.53,18.16c6.65,1.97,13.15,2.77,19.55,2.77c12.41,0,24.38-3.02,36.32-6.49
	c11.94-3.47,23.83-7.38,36.06-9.27c7.32-1.12,14.36-1.64,21.34-1.64c10.2,0,20.28,1.08,30.87,2.93c7.05,1.23,13.76,1.77,20.24,1.77
	c18.5,0,35.02-4.4,51.73-9.72c16.71-5.32,33.61-11.56,52.92-15.36c33.32-6.56,67.13-8.54,101.13-8.54
	c51.27,0,102.99,4.49,154.24,4.49c10.78,0,21.55-0.2,32.29-0.68c0.65-0.02,1.15-0.58,1.12-1.23c-0.02-0.65-0.58-1.16-1.23-1.12
	c-10.69,0.48-21.42,0.68-32.18,0.68c-51.11,0-102.84-4.49-154.24-4.49c-34.09,0-68.05,1.98-101.59,8.57
	c-19.54,3.85-36.54,10.13-53.18,15.43c-16.64,5.29-32.9,9.6-51.01,9.6c-6.35,0-12.93-0.53-19.84-1.73
	c-10.69-1.85-20.9-2.96-31.29-2.96c-7.09,0-14.26,0.52-21.71,1.66c-12.48,1.93-24.47,5.89-36.35,9.34
	c-11.88,3.46-23.65,6.39-35.66,6.39c-6.2,0-12.47-0.78-18.88-2.68c-12.61-3.73-23.91-10.39-34.88-17.85
	c-10.97-7.45-21.6-15.67-32.92-22.46c-20.72-12.4-39.7-17.76-59.24-17.76c-16.82,0-34.02,3.96-53.13,10.73
	c-0.61,0.21-0.93,0.9-0.72,1.51c0.21,0.61,0.9,0.93,1.51,0.72L16.56,118.69z M7.19,129.28c17.99-6.79,33.82-10.39,49.21-10.39
	c18.69,0,36.81,5.28,57.56,16.76c11.58,6.4,22.66,14.26,34.12,21.45c11.47,7.19,23.34,13.75,36.54,17.49
	c6.8,1.92,13.48,2.69,20.06,2.69c12.28,0,24.23-2.65,36.18-5.38c11.95-2.74,23.92-5.55,36.22-5.98c1.39-0.05,2.77-0.07,4.15-0.07
	c18.37,0,34.92,4.33,52.52,10.17c9.85,3.27,18.85,4.66,27.27,4.66c17.82,0,33.01-6.23,48.45-13.86
	c15.46-7.64,31.24-16.7,50.36-22.63c31.53-9.78,64.3-13.13,97.52-13.13c59.98,0,121.42,10.91,179.71,14.38
	c0.65,0.04,1.2-0.46,1.25-1.11c0.03-0.65-0.46-1.2-1.11-1.25c-58.1-3.46-119.59-14.38-179.85-14.38c-33.38,0-66.39,3.36-98.23,13.23
	c-19.42,6.03-35.34,15.18-50.7,22.78c-15.38,7.6-30.17,13.62-47.42,13.62c-8.17,0-16.89-1.35-26.54-4.54
	c-17.69-5.86-34.51-10.29-53.26-10.29c-1.4,0-2.8,0.02-4.23,0.07c-12.61,0.45-24.72,3.31-36.66,6.04
	c-11.95,2.74-23.72,5.33-35.66,5.32c-6.4,0-12.84-0.74-19.42-2.61c-12.86-3.64-24.53-10.07-35.93-17.22
	c-11.4-7.15-22.51-15.03-34.24-21.52c-20.97-11.61-39.56-17.06-58.71-17.06c-15.77,0-31.89,3.68-50.04,10.54
	c-0.61,0.22-0.92,0.91-0.68,1.52c0.22,0.61,0.91,0.92,1.52,0.68H7.19z M2.65,145.33c17.23-6.89,32.64-10.53,47.88-10.53
	c16.41,0,32.65,4.22,50.82,13.31c12.26,6.13,23.98,13.99,36.01,21.37c12.02,7.37,24.36,14.26,37.86,18.38
	c7.91,2.41,15.52,3.3,22.94,3.3c10.63,0,20.88-1.82,31.24-3.63c10.36-1.82,20.83-3.62,31.89-3.66c0.13,0,0.27,0,0.4,0
	c12.48,0,23.59,2.16,34.44,5.52c10.85,3.36,21.43,7.93,32.82,12.74c5.83,2.47,11.28,4.77,16.7,6.46c5.42,1.7,10.84,2.78,16.57,2.78
	c4.85,0,9.91-0.78,15.38-2.61c14.84-4.97,27.54-14.72,40.08-24.76c12.54-10.05,24.91-20.39,38.95-26.68
	c30.87-13.85,63.54-18.61,96.84-18.61c53.5,0,108.6,12.31,160.28,18.85c0.65,0.08,1.24-0.38,1.32-1.03
	c0.08-0.65-0.38-1.24-1.03-1.32c-51.53-6.51-106.72-18.86-160.59-18.86c-33.52,0-66.54,4.79-97.8,18.81
	c-14.45,6.49-26.95,16.97-39.45,27c-12.51,10.02-25.02,19.58-39.35,24.37c-5.23,1.75-10.03,2.49-14.62,2.49
	c-5.42,0-10.58-1.03-15.86-2.68c-5.28-1.65-10.66-3.92-16.49-6.38c-11.37-4.8-22.02-9.4-33.04-12.81
	c-11.01-3.41-22.39-5.63-35.14-5.63c-0.14,0-0.27,0-0.41,0c-11.31,0.05-21.92,1.89-32.29,3.69c-10.37,1.82-20.48,3.6-30.84,3.6
	c-7.24,0-14.59-0.87-22.26-3.2c-13.19-4.01-25.35-10.78-37.32-18.13c-11.97-7.34-23.74-15.24-36.19-21.47
	c-18.39-9.2-35.04-13.55-51.87-13.55c-15.61,0-31.33,3.74-48.75,10.7c-0.6,0.24-0.9,0.93-0.66,1.53c0.24,0.6,0.93,0.9,1.53,0.66
	L2.65,145.33z M11.04,164.56c17.2-4.61,32.88-7.23,48.27-7.23c17.78,0,35.2,3.49,54.28,11.55c20.68,8.72,39.91,21.59,62.11,27.69
	c11.38,3.13,22.77,3.94,34.11,3.94c12.64,0,25.25-1,37.85-1c7.35,0,14.69,0.34,22.04,1.42c21.91,3.21,41.05,11.77,61.54,20.13
	c10.84,4.41,20.4,6.31,29.12,6.31c8.6,0,16.38-1.84,23.72-4.87c11.02-4.53,21.07-11.68,31.74-19.25
	c10.68-7.57,21.96-15.59,35.4-21.94c26.68-12.61,55.76-16.45,85.73-16.45c46.38,0,94.79,9.25,139.33,9.25c1.39,0,2.79,0,4.17-0.02
	c0.65,0,1.17-0.54,1.17-1.19c0-0.65-0.54-1.17-1.19-1.17c-1.38,0.02-2.76,0.02-4.15,0.02c-44.22,0-92.64-9.25-139.33-9.25
	c-30.15,0-59.63,3.87-86.74,16.69c-18.22,8.61-32.44,20.16-46.24,29.46c-6.89,4.66-13.68,8.75-20.8,11.68
	c-7.12,2.93-14.55,4.68-22.82,4.69c-8.38,0-17.62-1.82-28.22-6.13c-20.44-8.33-39.78-17.01-62.09-20.27
	c-7.49-1.1-14.95-1.44-22.38-1.44c-12.72,0-25.34,1-37.85,1c-11.24,0-22.39-0.81-33.49-3.85c-21.72-5.94-40.88-18.74-61.83-27.6
	c-19.31-8.16-37.09-11.74-55.19-11.74c-15.66,0-31.53,2.66-48.87,7.31c-0.62,0.16-1,0.81-0.84,1.44c0.16,0.62,0.81,1,1.44,0.84
	L11.04,164.56z M29.41,179.09c14.33-2.02,28.12-3.35,41.73-3.35c17.75,0,35.19,2.25,53.18,8.17c21.47,7.05,41.82,17.6,64.28,22.73
	c27.87,6.35,56.73,4,84.48,8.63c23.89,3.99,46.2,12.34,69.65,18.71c9.98,2.7,19.53,4.62,29.29,4.62c6.12,0,12.33-0.75,18.76-2.55
	c13.87-3.86,25.03-11.57,35.85-19.61c10.82-8.07,21.3-16.48,33.77-21.93c16.36-7.17,33.91-9.31,51.65-9.31
	c8.32,0,16.67,0.47,24.95,1.11c27.46,2.12,53.78,4.28,80.47,4.28c16.24,0,32.62-0.8,49.46-2.91c0.65-0.08,1.11-0.67,1.03-1.32
	c-0.08-0.65-0.67-1.11-1.32-1.03c-16.72,2.1-32.99,2.89-49.16,2.89c-26.56,0-52.83-2.16-80.29-4.28
	c-8.31-0.64-16.72-1.12-25.12-1.12c-17.91,0-35.82,2.16-52.59,9.51c-12.85,5.63-23.46,14.18-34.23,22.2
	c-10.77,8.03-21.68,15.52-35.07,19.24c-6.22,1.72-12.2,2.45-18.12,2.45c-9.46,0-18.8-1.86-28.68-4.55
	c-23.31-6.32-45.71-14.72-69.89-18.75c-28.14-4.68-56.94-2.34-84.34-8.61c-22.08-5.04-42.36-15.53-64.07-22.68
	c-18.26-6-35.97-8.29-53.92-8.29c-13.76,0-27.66,1.34-42.06,3.36c-0.65,0.09-1.1,0.68-1,1.33c0.09,0.65,0.68,1.1,1.33,1V179.09z
	 M54.09,194.02c1.44-0.01,2.88-0.02,4.31-0.02c101.66-0.02,199.81,38.56,301.35,49.45c5.04,0.54,9.99,0.83,14.88,0.83
	c13.55,0,26.62-2.18,39.93-7.05c11.87-4.35,22.19-11.26,32.4-18.02c10.22-6.77,20.32-13.38,31.69-17.22
	c8.57-2.9,17.23-3.98,25.97-3.98c14.15,0,28.49,2.82,42.8,5.18c19.67,3.23,37.86,5,56.02,5c20.08,0,40.1-2.16,61.97-6.85
	c0.64-0.14,1.04-0.77,0.91-1.4c-0.14-0.64-0.77-1.04-1.4-0.91c-21.73,4.66-41.56,6.79-61.48,6.79c-18.01,0-36.07-1.75-55.64-4.97
	c-14.26-2.35-28.72-5.2-43.19-5.21c-8.93,0-17.86,1.1-26.73,4.11c-11.74,3.99-22.01,10.72-32.23,17.49
	c-10.22,6.77-20.4,13.56-31.91,17.77c-13.06,4.78-25.82,6.91-39.12,6.91c-4.8,0-9.66-0.28-14.64-0.81
	c-101.13-10.83-199.35-49.45-301.6-49.48c-1.45,0-2.89,0-4.34,0.02c-0.65,0-1.18,0.54-1.17,1.19c0,0.65,0.54,1.18,1.19,1.17V194.02z
	 M77.01,210.86c42.03,4.92,85.31,4.84,126.53,13.51c52.46,11.02,106.72,28.06,161.3,28.07c4.63,0,9.27-0.12,13.92-0.39
	c20.88-1.18,40.19-6.73,59.28-14.94c10.45-4.51,20.66-11.16,30.97-17.14c10.31-5.98,20.73-11.27,31.5-13.13c3-0.52,6-0.75,8.97-0.75
	c16.92-0.01,33.6,7.52,50.1,12.31c17.25,4.99,33.18,7.24,48.94,7.24c20.86,0,41.4-3.94,64.3-10.62c0.62-0.18,0.98-0.84,0.8-1.46
	s-0.84-0.99-1.46-0.8c-22.79,6.64-43.08,10.52-63.64,10.52c-15.53,0-31.23-2.22-48.28-7.15c-16.28-4.69-33.13-12.4-50.75-12.41
	c-3.1,0-6.23,0.24-9.37,0.78c-11.26,1.95-21.91,7.39-32.29,13.41c-10.38,6.03-20.53,12.63-30.72,17.02
	c-18.92,8.14-37.93,13.6-58.48,14.75c-4.6,0.26-9.19,0.38-13.77,0.38c-54.09,0-108.21-16.96-160.81-28.01
	c-41.55-8.73-84.9-8.63-126.74-13.53c-0.65-0.07-1.24,0.39-1.31,1.04c-0.07,0.65,0.39,1.24,1.04,1.31L77.01,210.86z M89.36,231.15
	c21,4.84,43.14,9.88,65.13,9.9c5.4,0,10.79-0.31,16.15-1c11.89-1.55,22.29-3.74,33.38-3.74c3.77,0,7.62,0.25,11.67,0.87
	c25.19,3.83,49.46,10.9,73.79,17.03c24.35,6.12,48.76,11.31,74.27,11.31c10.62,0,21.41-0.9,32.46-3.01
	c21.56-4.1,41.5-13.17,60.96-22.66c9.21-4.49,19.34-11.07,29.75-16.56c10.4-5.5,21.08-9.87,31.24-10.11c0.28,0,0.57,0,0.85,0
	c9.63,0,18.98,3.74,28.15,8.46c9.17,4.72,18.12,10.38,27.04,14.06c14.74,6.07,28.87,8.6,42.8,8.6c22.27,0,44.02-6.42,67.24-14.86
	c0.61-0.22,0.93-0.9,0.71-1.51c-0.22-0.61-0.9-0.93-1.51-0.71c-23.13,8.42-44.62,14.72-66.44,14.72c-13.65,0-27.43-2.45-41.9-8.42
	c-8.65-3.55-17.58-9.19-26.87-13.98c-9.29-4.78-18.97-8.72-29.22-8.73c-0.29,0-0.6,0-0.9,0c-10.79,0.26-21.74,4.82-32.27,10.38
	c-10.54,5.56-20.67,12.14-29.68,16.52c-19.41,9.47-39.17,18.43-60.37,22.47c-10.9,2.08-21.54,2.96-32.03,2.96
	c-25.18,0-49.41-5.13-73.69-11.24c-24.29-6.11-48.62-13.21-74.01-17.08c-4.16-0.64-8.14-0.9-12.02-0.9
	c-11.42,0-21.92,2.24-33.69,3.76c-5.24,0.67-10.53,0.98-15.85,0.98c-21.62,0-43.61-4.99-64.6-9.84c-0.64-0.14-1.26,0.25-1.41,0.88
	c-0.14,0.64,0.25,1.26,0.88,1.42L89.36,231.15z M89.17,257.2c19.58,6.1,39.49,12.81,59.6,12.82c9.25,0,18.53-1.43,27.82-5
	c7.45-2.87,13.88-6.26,20.38-8.92c6.51-2.65,13.07-4.57,20.87-4.57c0.9,0,1.8,0.02,2.73,0.08c16.68,0.93,33.36,6.39,50.07,12.4
	c16.72,5.99,33.48,12.54,50.43,15.53c13.88,2.45,27.75,3.96,41.6,3.96c15.32,0,30.59-1.85,45.74-6.33
	c8.57-2.54,17.75-7.09,27.29-12.47c14.32-8.08,29.47-18.03,44.51-25.95c15.02-7.93,29.92-13.78,43.58-13.76
	c3.9,0,7.71,0.47,11.4,1.5c8.17,2.28,15.44,7.3,22.59,12.82c7.15,5.52,14.16,11.52,21.93,15.62c14.19,7.49,28.16,10.52,41.97,10.52
	c24.59,0,48.64-9.53,73.06-20.27c0.6-0.26,0.87-0.96,0.6-1.56c-0.26-0.6-0.95-0.87-1.55-0.6c-24.37,10.73-48.15,20.07-72.12,20.07
	c-13.47,0-27.02-2.94-40.88-10.25c-7.43-3.92-14.38-9.82-21.59-15.39c-7.21-5.57-14.71-10.8-23.39-13.23
	c-3.91-1.1-7.94-1.59-12.03-1.59c-9.56,0-19.48,2.7-29.53,6.85c-15.07,6.23-30.45,15.76-45.2,24.64
	c-14.74,8.88-28.88,17.11-41.3,20.78c-14.91,4.41-29.94,6.24-45.07,6.24c-13.67,0-27.41-1.5-41.18-3.93
	c-16.64-2.94-33.3-9.41-50.04-15.43c-16.76-6.02-33.62-11.56-50.73-12.53c-0.98-0.06-1.93-0.08-2.86-0.08
	c-8.2,0-15.12,2.03-21.76,4.74c-6.65,2.71-13.06,6.1-20.34,8.89c-8.99,3.45-17.97,4.83-26.97,4.85c-19.58,0-39.29-6.59-58.91-12.71
	c-0.62-0.19-1.28,0.15-1.47,0.78c-0.19,0.63,0.15,1.29,0.78,1.47H89.17z M68.18,293.76c19.82,6.9,39.26,13.43,58.71,13.43
	c13.28,0,26.56-3.08,39.79-11.17c8.92-5.45,16.65-11.83,24.82-16.95c8.18-5.12,16.76-9,27.49-9.59c1.33-0.07,2.66-0.11,4-0.11
	c17.46,0,34.64,6.17,51.74,13.4c17.11,7.22,34.14,15.47,51.39,19.46c12.97,3,26.07,4.69,39.1,4.69c15.74,0,31.41-2.48,46.66-8.15
	c15.65-5.84,33.45-18.99,51.91-30.65c9.23-5.84,18.59-11.29,27.88-15.27c9.29-3.99,18.46-6.5,27.33-6.5
	c5.46,0,10.79,0.94,15.99,3.09c8.17,3.37,15.2,9.21,22.19,15.39c6.99,6.17,13.92,12.65,22,17.2c12.6,7.06,25.39,9.93,38.1,9.92
	c28.39-0.01,56.28-14.2,81.67-27.52c0.58-0.31,0.8-1.01,0.49-1.59c-0.31-0.58-1.01-0.8-1.59-0.5
	c-25.36,13.33-52.99,27.26-80.58,27.25c-12.35,0-24.7-2.77-36.95-9.62c-7.74-4.34-14.58-10.7-21.59-16.9
	c-7.02-6.19-14.23-12.24-22.85-15.8c-5.5-2.28-11.16-3.27-16.89-3.27c-9.3,0-18.78,2.62-28.24,6.69
	c-14.2,6.1-28.41,15.48-41.94,24.37c-13.53,8.89-26.39,17.31-37.74,21.52c-14.97,5.57-30.34,8.01-45.84,8.01
	c-12.83,0-25.75-1.68-38.57-4.64c-16.9-3.89-33.83-12.08-51.01-19.33c-17.18-7.25-34.63-13.58-52.66-13.59
	c-1.37,0-2.75,0.04-4.12,0.12c-11.25,0.61-20.27,4.72-28.61,9.94c-8.34,5.24-16.06,11.61-24.79,16.94
	c-12.87,7.85-25.64,10.82-38.57,10.82c-18.9,0-38.12-6.39-57.93-13.3c-0.61-0.21-1.28,0.11-1.5,0.73c-0.21,0.61,0.11,1.29,0.73,1.5
	L68.18,293.76z M44.87,319.92c20.59,5.72,40.1,10.32,59.71,10.33c14.89,0,29.84-2.67,45.26-9.51c10.75-4.76,20.72-10.59,30.93-15.62
	c10.21-5.01,20.65-9.22,32.33-10.82c4.22-0.58,8.39-0.84,12.51-0.84c15.62,0,30.66,3.76,45.65,8.52
	c14.98,4.75,29.88,10.5,45.23,14.39c18.17,4.61,36.84,7.57,55.56,7.57c8.8,0,17.62-0.65,26.4-2.1c21.95-3.62,42.2-12.5,62.37-20.95
	c9.62-4.02,20.07-9.68,30.78-14.32c10.71-4.64,21.65-8.23,32.13-8.23c1.01,0,2.02,0.04,3.02,0.11c9.01,0.61,17.36,4.09,25.56,8.32
	c8.2,4.22,16.23,9.21,24.65,12.71c13.19,5.48,26.1,7.78,38.79,7.78c28.12,0,55.05-11.24,81.9-23.86c0.59-0.27,0.84-0.98,0.57-1.57
	c-0.27-0.59-0.98-0.84-1.57-0.57c-26.78,12.61-53.42,23.65-80.88,23.64c-12.41,0-24.98-2.24-37.89-7.61
	c-8.18-3.41-16.17-8.35-24.47-12.63c-8.31-4.28-16.95-7.91-26.47-8.58c-1.06-0.07-2.12-0.11-3.18-0.11
	c-11.03,0-22.24,3.74-33.08,8.42c-10.83,4.7-21.3,10.36-30.76,14.31c-20.2,8.47-40.28,17.26-61.85,20.81
	c-8.65,1.43-17.33,2.06-26.01,2.06c-18.48,0-36.95-2.93-54.98-7.49c-15.17-3.85-30.02-9.57-45.1-14.35
	c-15.07-4.78-30.36-8.62-46.36-8.62c-4.23,0-8.5,0.27-12.83,0.86c-12.07,1.64-22.75,5.97-33.05,11.03
	c-10.31,5.07-20.26,10.88-30.85,15.57c-15.12,6.7-29.69,9.31-44.31,9.31c-19.23,0-38.54-4.53-59.08-10.24
	c-0.62-0.18-1.27,0.19-1.45,0.83c-0.18,0.62,0.19,1.27,0.82,1.45L44.87,319.92z M27.68,340.05c20.21,4.55,39.49,7.9,58.82,7.9
	c15.64,0,31.29-2.19,47.45-7.72c23.85-8.17,45.3-20.49,69.98-25.13c8.4-1.58,16.8-2.27,25.21-2.27c25.19,0,50.4,6.13,75.8,12.31
	c25.41,6.18,51,12.4,76.98,12.42h0.13c21.19,0,42.04-2.95,62.43-8.81c12.99-3.74,25.05-10.29,37.07-16.39
	c12.03-6.12,24.01-11.79,36.79-13.94c3.03-0.51,5.96-0.73,8.83-0.73c9.23,0,17.77,2.37,26.32,5.51c8.55,3.14,17.09,7.04,26.25,10.04
	c13,4.25,25.51,6.05,37.78,6.05c26.19,0,51.22-8.24,77.74-18.51c0.61-0.24,0.91-0.92,0.67-1.52c-0.24-0.61-0.92-0.91-1.52-0.67
	c-26.45,10.25-51.2,18.35-76.89,18.35c-12.03,0-24.27-1.77-37.05-5.93c-9-2.94-17.51-6.83-26.17-10.01
	c-8.66-3.17-17.51-5.65-27.14-5.65c-2.99,0-6.06,0.24-9.22,0.77c-13.21,2.22-25.4,8.03-37.46,14.15c-12.07,6.13-24,12.6-36.66,16.23
	c-20.17,5.79-40.82,8.72-61.78,8.72h-0.13c-25.6-0.01-51.02-6.17-76.43-12.35c-25.4-6.18-50.79-12.39-76.37-12.39
	c-8.53,0-17.07,0.7-25.64,2.31c-25.18,4.77-46.75,17.17-70.31,25.23c-15.9,5.44-31.27,7.61-46.69,7.61
	c-19.05,0-38.17-3.31-58.31-7.86c-0.64-0.14-1.26,0.26-1.41,0.9c-0.14,0.64,0.26,1.26,0.9,1.41L27.68,340.05z M17.38,355.39
	c20.63,3.79,40.28,6.75,60.13,6.75c13.75,0,27.62-1.43,41.97-4.98c22.74-5.63,44.21-15.25,66.53-21.52
	c15.62-4.4,31.01-6.11,46.33-6.11c44.22-0.01,87.74,14.38,133.35,19.74c11.7,1.38,23.48,2.3,35.26,2.3
	c11.83,0,23.65-0.93,35.39-3.24c14.69-2.9,27-9.35,38.98-16.14c12-6.79,23.7-13.91,37.19-18.3c7.07-2.31,13.69-3.27,20.11-3.27
	c15.7,0,30.24,5.77,46.76,11.73c17.71,6.38,34.22,9.04,50.61,9.04c21.06,0,41.91-4.38,64.99-10.8c0.62-0.18,0.99-0.83,0.82-1.45
	c-0.18-0.62-0.82-0.99-1.45-0.82c-22.99,6.4-43.62,10.72-64.35,10.72c-16.14,0-32.35-2.61-49.81-8.9
	c-16.45-5.93-31.25-11.86-47.55-11.88c-6.65,0-13.54,0.99-20.85,3.38c-13.83,4.51-25.67,11.74-37.62,18.49
	c-11.95,6.77-24,13.06-38.29,15.88c-11.56,2.28-23.23,3.2-34.94,3.2c-11.65,0-23.33-0.91-34.97-2.28
	c-45.31-5.32-88.89-19.76-133.64-19.77c-15.48,0-31.11,1.73-46.97,6.2c-22.53,6.35-43.98,15.95-66.46,21.5
	c-14.15,3.5-27.81,4.91-41.41,4.91c-19.63,0-39.12-2.94-59.71-6.71c-0.64-0.12-1.25,0.31-1.37,0.94c-0.12,0.64,0.31,1.25,0.94,1.37
	V355.39z M9.89,369.83c20.17,2.98,39.03,4.55,57.34,4.55c35.52,0,69.03-5.91,106.3-18.82c24.84-8.6,44.07-14.6,67.84-14.6
	c5.27,0,10.76,0.3,16.58,0.92c31.97,3.44,63.2,11.61,94.81,17.99c19.37,3.91,39.26,7.48,59.21,7.48c6.39,0,12.79-0.36,19.17-1.2
	c16.73-2.19,30.12-9.18,42.97-17.01c12.87-7.83,25.24-16.51,40.02-22.34c9.58-3.77,18.35-5.35,26.87-5.35
	c14.33,0,28,4.52,43.46,10.92c26.21,10.86,49.26,15.64,74.41,15.64c12.12,0,24.73-1.11,38.43-3.16c0.65-0.09,1.08-0.7,0.99-1.34
	c-0.09-0.65-0.7-1.09-1.34-0.99c-13.61,2.04-26.1,3.13-38.07,3.13c-24.85,0-47.52-4.68-73.51-15.45
	c-15.54-6.44-29.53-11.1-44.37-11.1c-8.81,0-17.91,1.65-27.73,5.52c-15.11,5.96-27.61,14.74-40.38,22.52
	c-12.79,7.78-25.82,14.54-42.06,16.68c-6.27,0.83-12.57,1.19-18.86,1.19c-19.67,0-39.42-3.53-58.75-7.43
	c-31.52-6.36-62.82-14.54-95.02-18.01c-5.9-0.64-11.48-0.93-16.84-0.93c-24.19,0-43.76,6.13-68.62,14.73
	c-37.07,12.84-70.28,18.7-105.53,18.7c-18.18,0-36.92-1.56-57-4.53c-0.65-0.09-1.24,0.35-1.34,0.99c-0.09,0.65,0.35,1.24,0.99,1.35
	L9.89,369.83z M5.13,383.54c28.88,3.31,57.27,7.23,85.49,7.23c25.81,0,51.47-3.29,77.16-13.35c14.01-5.49,25.9-11.7,38.01-16.51
	c12.12-4.81,24.47-8.23,39.52-8.24c0.81,0,1.65,0,2.49,0.04c33.51,0.83,66.18,11.09,98.55,19.77c24.19,6.48,49.47,13.55,74.97,13.55
	c3.49,0,6.98-0.13,10.48-0.41c18.37-1.5,32.91-8.98,46.74-17.8c13.83-8.83,27.01-19.01,42.72-26.17c11.42-5.2,21.89-7.51,32.15-7.51
	c13.7,0,27.08,4.14,41.73,11.24c37,17.95,66.72,29.03,108.87,29.02c0.34,0,0.67,0,1.01,0c0.65,0,1.18-0.53,1.18-1.18
	c0-0.65-0.53-1.18-1.18-1.18c-0.33,0-0.67,0-1,0c-41.73,0-70.91-10.89-107.84-28.78c-14.82-7.18-28.56-11.48-42.75-11.48
	c-10.62,0-21.46,2.41-33.12,7.73c-16.01,7.3-29.28,17.58-43,26.33c-13.73,8.75-27.84,15.98-45.66,17.43
	c-3.43,0.28-6.86,0.41-10.29,0.41c-25.06,0-50.15-6.98-74.36-13.48c-32.3-8.64-65.13-19-99.09-19.84c-0.86-0.02-1.7-0.04-2.55-0.04
	c-15.41,0-28.12,3.53-40.39,8.41c-12.28,4.87-24.14,11.07-38,16.51c-25.35,9.93-50.68,13.19-76.3,13.19c-28,0-56.31-3.9-85.22-7.22
	c-0.65-0.07-1.23,0.39-1.31,1.04c-0.07,0.65,0.39,1.23,1.04,1.31H5.13z M2.13,398.89c37.55,3.16,77.1,13.88,115.82,13.89
	c19.83,0,39.45-2.82,58.46-10.96c14.05-6.02,25.12-14.12,36.58-20.82c11.47-6.71,23.26-12.04,38.93-12.77
	c1.83-0.08,3.65-0.13,5.47-0.13c31.37,0,62.56,12.15,92.14,22.04c27.37,9.14,56.75,20.84,86.42,20.85c0.67,0,1.33,0,2-0.02
	c20.77-0.38,37.33-9.22,52.99-19.84c15.67-10.64,30.54-23.06,47.98-30.94c11.98-5.41,22.74-7.93,33.18-7.94
	c13.85,0,27.2,4.43,42.15,12.67c17.55,9.67,33.42,18.65,50.1,25.99c16.69,7.35,34.2,13.05,54.96,16.12c0.65,0.1,1.24-0.35,1.34-0.99
	c0.09-0.65-0.35-1.24-0.99-1.35c-20.53-3.04-37.8-8.67-54.35-15.95c-16.54-7.28-32.36-16.23-49.91-25.91
	c-15.14-8.35-28.93-12.96-43.29-12.96c-10.83,0-21.94,2.62-34.15,8.14c-17.83,8.05-32.78,20.59-48.34,31.12
	c-15.55,10.54-31.63,19.07-51.72,19.44c-0.65,0.01-1.31,0.01-1.96,0.01c-29.05,0-58.22-11.55-85.68-20.72
	c-29.51-9.85-60.91-22.15-92.89-22.16c-1.86,0-3.72,0.05-5.59,0.13c-16.17,0.74-28.42,6.3-40.02,13.09
	c-11.6,6.79-22.57,14.8-36.32,20.69c-18.64,7.98-37.92,10.77-57.53,10.77c-38.3,0-77.77-10.69-115.63-13.88
	c-0.65-0.06-1.21,0.43-1.27,1.07c-0.06,0.65,0.42,1.21,1.07,1.27L2.13,398.89z M23.31,48.63l0.34,1.13
	c24.47-7.37,47.04-12.6,68.9-12.6c22.91,0,45.05,5.71,67.99,20.76c10.18,6.68,19.62,15.01,29.66,22.44
	c10.04,7.42,20.7,13.95,33.34,16.88c4.52,1.01,9.11,1.46,13.72,1.46c14.69,0,29.62-4.61,43.9-10.67
	c14.28-6.07,27.94-13.62,40.05-19.59l0.05-0.02c7.69-4.2,15.41-10.18,23.25-15.78s15.78-10.82,23.79-13.52
	c3.64-1.23,7.06-1.75,10.4-1.75c7.65,0,14.96,2.71,23.27,5.91c16.23,6.24,31.18,13.28,46.53,19.33
	c15.35,6.05,31.1,11.12,48.85,13.38c15.77,1.99,33.44,3.24,51.87,3.24c34.22,0,71.04-4.29,103.12-16.11s59.46-31.21,74.53-61.4
	l-1.05-0.53L725,2.02c21.18,21.52,36.66,52.98,36.65,83.34c0,19.56-6.38,38.64-21.74,54.56c-4.25,4.41-11.07,8.27-18.89,11.94
	c-11.74,5.52-25.7,10.64-36.84,17.22c-5.56,3.3-10.44,6.97-13.95,11.31c-3.52,4.33-5.67,9.39-5.66,15.23
	c0,3.64,0.83,7.57,2.59,11.84c2.91,7.01,7.82,12.8,12.74,18.49c4.91,5.7,9.82,11.3,12.84,17.79c3.42,7.31,4.53,14.58,4.53,22.04
	c0,7.83-1.24,15.88-2.31,24.26c-1.05,8.26-1.55,16.24-1.55,23.98c0,24.39,5,46.45,13.56,67.78c8.57,21.35,20.68,41.99,34.93,63.67
	l0.99-0.65l0.33-1.13c-20.68-6.07-37.65-14.54-53.97-24.15c-16.33-9.61-32.03-20.38-50.14-31.02
	c-13.37-7.85-25.79-11.42-38.27-11.42c-13.55,0-27.1,4.18-42.03,11.37c-17.05,8.21-32.42,21.95-48.4,33.56
	c-7.99,5.8-16.12,11.09-24.65,14.9c-8.54,3.81-17.46,6.17-27.11,6.17h-0.28c-15.77-0.07-31.56-4.28-47.01-10.03
	c-15.44-5.74-30.51-13.02-44.85-19.18c-12.41-5.32-26.49-12.09-41.15-17.54c-14.67-5.45-29.93-9.58-44.76-9.59
	c-4.46,0-8.89,0.38-13.23,1.2c-15.35,2.94-27.44,12.03-39.32,21.45c-11.89,9.44-23.59,19.21-38.06,23.91
	c-12.43,4.03-25.04,5.66-37.79,5.66c-24.88,0-50.26-6.23-75.58-12.84c-25.33-6.62-50.6-13.61-75.34-15.04l-0.07,1.18l1.18,0.02
	c0.37-18.68,3.64-34.3,9.78-48.04c6.14-13.74,15.15-25.63,27.07-36.83l0.08-0.09c11.19-13.02,24.53-26.8,35.09-41.01
	c5.28-7.11,9.87-14.33,13.16-21.64c3.29-7.31,5.27-14.73,5.27-22.22c0-7.15-1.81-14.34-5.97-21.44
	c-4.15-7.11-10.62-14.13-19.88-21.05c-4.96-3.7-11.42-7.42-18.35-11.37c-10.38-5.91-21.79-12.32-30.52-19.72
	c-4.37-3.69-8.06-7.62-10.65-11.81c-2.58-4.2-4.07-8.63-4.07-13.46c0-5.44,1.9-11.43,6.46-18.12c3.22-4.72,8.13-8.07,13.26-11.37
	c5.11-3.32,10.43-6.58,14.23-11.37c5.56-7.01,7.94-13.28,7.94-19.2c0-6.31-2.67-12.04-6.6-17.75c-3.94-5.72-9.14-11.48-14.46-17.9
	l-0.91,0.75h1.18v-0.04h-1.18l0.34,1.13l-0.34-1.13h-1.18v0.04c0,0.28,0.09,0.54,0.27,0.75c5.36,6.48,10.53,12.21,14.33,17.74
	c3.81,5.53,6.19,10.8,6.19,16.42c0,5.27-2.09,10.98-7.44,17.73c-3.45,4.35-8.52,7.54-13.67,10.85c-5.14,3.33-10.36,6.82-13.93,12.02
	c-4.76,6.97-6.87,13.44-6.87,19.45c0,7.09,2.93,13.41,7.53,19.05c6.91,8.46,17.55,15.51,28.27,21.87
	c10.72,6.33,21.55,11.96,28.72,17.33c9.07,6.78,15.31,13.59,19.25,20.35c3.95,6.77,5.64,13.51,5.66,20.25
	c0,7.05-1.87,14.15-5.06,21.25c-4.77,10.65-12.53,21.27-21.19,31.67c-8.67,10.4-18.25,20.58-26.7,30.41l0.9,0.77l-0.8-0.86
	c-12.09,11.36-21.32,23.52-27.6,37.59C3.7,377.37,0.37,393.33,0,412.26c-0.01,0.64,0.48,1.17,1.11,1.2
	c24.39,1.4,49.54,8.34,74.88,14.97c25.35,6.62,50.91,12.92,76.18,12.93c12.94,0,25.82-1.65,38.52-5.78
	c15.04-4.88,26.95-14.91,38.8-24.3c11.85-9.41,23.64-18.19,38.3-20.98c4.18-0.8,8.46-1.17,12.79-1.17c14.39,0,29.41,4.03,43.95,9.43
	c14.53,5.4,28.57,12.14,41.04,17.49c14.27,6.12,29.38,13.42,44.95,19.21c15.58,5.79,31.63,10.1,47.81,10.18h0.29
	c10.03,0,19.31-2.45,28.07-6.38c13.15-5.87,25.16-15.01,37.04-24.17c11.87-9.15,23.6-18.32,36.08-24.31
	c14.76-7.11,27.96-11.13,41.02-11.13c12.02,0,23.98,3.4,37.08,11.09c18.03,10.58,33.71,21.35,50.14,31.02
	c16.43,9.67,33.58,18.25,54.51,24.39c0.47,0.14,0.99-0.04,1.28-0.42c0.3-0.4,0.31-0.93,0.04-1.35
	c-14.2-21.61-26.23-42.13-34.71-63.24c-8.47-21.12-13.4-42.84-13.4-66.91c0-7.63,0.49-15.51,1.53-23.67
	c1.06-8.35,2.32-16.48,2.32-24.57c0-7.69-1.15-15.34-4.75-23.03c-3.24-6.9-8.31-12.64-13.2-18.33c-4.9-5.68-9.63-11.31-12.34-17.86
	c-1.67-4.02-2.42-7.64-2.42-10.93c0-3.51,0.84-6.65,2.36-9.56c2.65-5.08,7.43-9.44,13.46-13.32c9.01-5.83,20.71-10.54,31.64-15.32
	c10.94-4.79,21.12-9.58,27.22-15.88c15.81-16.37,22.4-36.14,22.4-56.2c-0.01-31.17-15.78-63.07-37.32-85
	c-0.27-0.27-0.65-0.4-1.03-0.34s-0.7,0.29-0.87,0.64c-14.73,29.51-41.51,48.56-73.23,60.25c-31.71,11.69-68.29,15.97-102.3,15.97
	c-18.32,0-35.89-1.24-51.57-3.23c-17.5-2.22-33.03-7.21-48.29-13.23c-15.26-6.02-30.23-13.06-46.56-19.34
	c-8.31-3.18-15.9-6.06-24.12-6.07c-3.58,0-7.28,0.55-11.16,1.86c-8.43,2.84-16.52,8.2-24.4,13.83
	c-7.88,5.64-15.57,11.57-23.01,15.63l0.57,1.04l-0.52-1.06c-12.18,6-25.79,13.53-39.93,19.54c-14.14,6.02-28.79,10.5-42.99,10.5
	c-4.45,0-8.86-0.44-13.2-1.4c-12.16-2.82-22.54-9.13-32.46-16.48c-9.93-7.35-19.4-15.71-29.76-22.52
	c-23.29-15.29-45.98-21.15-69.28-21.14c-22.24,0-45.01,5.3-69.57,12.69c-0.49,0.15-0.84,0.6-0.84,1.13h1.18L23.31,48.63z"/>
<path class="st1" d="M476.64,299.48c-0.87-0.29-2.17-0.69-3.8-1.27c-0.81-0.29-1.73-0.58-2.69-0.98c-0.97-0.39-1.99-0.84-3.11-1.31
	c-1.11-0.47-2.29-0.98-3.52-1.55c-1.2-0.63-2.48-1.28-3.8-1.95c-0.66-0.35-1.34-0.7-2.02-1.07c-0.66-0.4-1.35-0.81-2.04-1.22
	c-1.38-0.84-2.82-1.7-4.24-2.65c-1.4-1-2.84-2.03-4.31-3.08c-1.45-1.09-2.84-2.31-4.31-3.51c-2.85-2.48-5.66-5.21-8.3-8.22
	l13.02-0.68l-19.06-12.02l-2.45-1.56c-10.73-7-19.87-17.43-22.81-27.57c-1.82-6.31-9.36-35.54,23.62-35.33
	c16.35-0.51,50.95,5.66,51.17,39.2c0.14,22.3-9.82,31.4-22.54,32.43l10.49,11.55l-17.06-1.13c0.74,0.71,1.46,1.41,2.18,2.11
	c1.28,1.14,2.54,2.25,3.76,3.33c1.23,1.08,2.51,2.03,3.7,3.02c0.6,0.49,1.18,0.98,1.76,1.44c0.61,0.45,1.2,0.88,1.77,1.31
	c1.16,0.87,2.27,1.7,3.31,2.49c1.06,0.79,2.11,1.45,3.08,2.14c0.97,0.68,1.88,1.31,2.71,1.91c0.83,0.61,1.64,1.08,2.36,1.55
	c1.44,0.92,2.54,1.7,3.32,2.21c0.76,0.53,1.17,0.81,1.17,0.81s-0.46-0.14-1.35-0.42V299.48z M408.77,285.64l-5,15.38
	c-1.05,3.24-4.67,5.88-8.1,5.88h-16.16c-3.41,0-7.04-2.64-8.1-5.88l-5-15.38c-1.05-3.25,0.33-7.51,3.09-9.52l13.08-9.5
	c1.37-1,3.18-1.5,4.98-1.5c1.82,0,3.63,0.49,5.02,1.5l13.08,9.5C408.44,278.14,409.83,282.39,408.77,285.64z M349.19,258.39
	l-2.46,1.55l-19.06,12.02l13.02,0.68c-2.64,3.01-5.44,5.75-8.3,8.22c-1.47,1.18-2.86,2.42-4.31,3.51c-1.47,1.05-2.91,2.08-4.31,3.08
	c-1.42,0.96-2.86,1.81-4.24,2.65c-0.69,0.42-1.36,0.82-2.04,1.22c-0.68,0.36-1.36,0.72-2.02,1.07c-1.33,0.68-2.59,1.34-3.8,1.95
	c-1.22,0.58-2.41,1.08-3.52,1.55s-2.14,0.93-3.11,1.31c-0.97,0.39-1.89,0.67-2.69,0.98c-1.62,0.58-2.93,0.98-3.8,1.27
	c-0.88,0.27-1.35,0.42-1.35,0.42s0.41-0.28,1.17-0.81c0.77-0.51,1.88-1.29,3.32-2.21c0.71-0.47,1.53-0.96,2.36-1.55
	c0.83-0.61,1.74-1.23,2.71-1.92c0.96-0.69,2.02-1.36,3.08-2.14c1.05-0.8,2.16-1.62,3.31-2.49c0.58-0.43,1.17-0.86,1.77-1.31
	c0.58-0.47,1.17-0.96,1.76-1.44c1.18-0.99,2.46-1.94,3.7-3.02c1.22-1.08,2.47-2.19,3.75-3.33c0.72-0.69,1.45-1.39,2.18-2.11
	l-17.06,1.13l10.49-11.55c-12.72-1.02-22.68-10.13-22.54-32.43c0.21-33.54,34.81-39.71,51.17-39.2
	c32.98-0.21,25.45,29.02,23.62,35.33c-2.94,10.15-12.08,20.57-22.81,27.57V258.39z M506.37,221.7c-0.06-0.89-0.08-1.78-0.15-2.67
	c-0.22-1.78-0.32-3.6-0.64-5.41c-0.13-0.91-0.27-1.81-0.42-2.72c-0.18-0.9-0.37-1.81-0.55-2.72c-0.3-1.83-0.87-3.61-1.3-5.41
	c-0.49-1.79-1.07-3.56-1.63-5.34c-0.68-1.73-1.23-3.5-1.95-5.2c-0.36-0.84-0.73-1.69-1.09-2.52c-0.35-0.84-0.69-1.69-1.11-2.49
	c-0.4-0.82-0.8-1.62-1.2-2.43c-0.4-0.8-0.76-1.62-1.2-2.38c-0.86-1.55-1.7-3.07-2.53-4.56c-0.89-1.46-1.76-2.89-2.62-4.28
	c-0.86-1.39-1.8-2.67-2.64-3.97c-0.43-0.64-0.85-1.28-1.27-1.9c-0.45-0.6-0.88-1.19-1.31-1.77c-0.85-1.17-1.66-2.29-2.44-3.36
	c-0.79-1.06-1.6-2.01-2.31-2.95c-0.72-0.94-1.41-1.8-2.03-2.63c-0.62-0.82-1.25-1.52-1.79-2.18c-1.11-1.3-1.93-2.37-2.52-3.08
	c-0.57-0.73-0.88-1.12-0.88-1.12s0.03,0.02,0.09,0.06c-0.03-0.04-0.05-0.06-0.05-0.06s0.41,0.28,1.17,0.8
	c0.75,0.54,1.88,1.3,3.26,2.32c0.69,0.52,1.49,1.06,2.29,1.72c0.82,0.65,1.66,1.38,2.59,2.16c0.92,0.78,1.9,1.6,2.91,2.52
	c0.97,0.95,1.99,1.94,3.06,2.99c0.53,0.53,1.07,1.06,1.62,1.61c0.52,0.58,1.05,1.17,1.58,1.76c1.06,1.21,2.19,2.45,3.27,3.78
	c1.05,1.37,2.12,2.77,3.22,4.21c1.07,1.46,2.04,3.04,3.09,4.62c2,3.2,3.89,6.65,5.53,10.29c0.58,1.25,1.07,2.56,1.57,3.86
	c-9.89-55.42-60.02-101.4-120.43-101.41c-60.29,0.01-110.34,45.82-120.36,101.1c0.46-1.2,0.92-2.39,1.44-3.54
	c1.64-3.64,3.53-7.08,5.53-10.29c1.05-1.56,2.03-3.15,3.09-4.62c1.1-1.43,2.18-2.84,3.22-4.21c1.08-1.34,2.21-2.57,3.28-3.78
	c0.54-0.6,1.07-1.19,1.58-1.76c0.55-0.55,1.09-1.08,1.62-1.61c1.07-1.04,2.09-2.04,3.06-2.99c1.01-0.91,1.99-1.74,2.91-2.52
	c0.93-0.78,1.77-1.51,2.59-2.16c0.81-0.65,1.6-1.19,2.29-1.72c1.38-1.03,2.51-1.79,3.26-2.32c0.76-0.52,1.17-0.8,1.17-0.8
	l-0.05,0.06c0.06-0.04,0.09-0.06,0.09-0.06s-0.3,0.39-0.88,1.12c-0.59,0.71-1.41,1.78-2.52,3.08c-0.54,0.66-1.18,1.36-1.79,2.18
	c-0.62,0.82-1.31,1.69-2.03,2.63c-0.72,0.94-1.53,1.9-2.31,2.95c-0.78,1.07-1.58,2.19-2.44,3.36c-0.43,0.58-0.86,1.17-1.31,1.77
	c-0.42,0.62-0.83,1.26-1.26,1.9c-0.84,1.3-1.79,2.58-2.65,3.97c-0.85,1.39-1.72,2.83-2.62,4.29c-0.82,1.49-1.67,3.01-2.53,4.56
	c-0.45,0.76-0.81,1.57-1.2,2.38s-0.8,1.61-1.2,2.43c-0.42,0.81-0.77,1.65-1.11,2.49c-0.36,0.83-0.72,1.68-1.09,2.52
	c-0.72,1.69-1.27,3.47-1.95,5.2c-0.56,1.77-1.14,3.55-1.63,5.34c-0.44,1.81-1,3.58-1.3,5.41c-0.18,0.91-0.37,1.81-0.55,2.72
	c-0.13,0.91-0.27,1.82-0.41,2.72c-0.31,1.81-0.42,3.62-0.64,5.41c-0.08,0.9-0.1,1.79-0.15,2.67c-0.05,0.89-0.11,1.77-0.11,2.65
	c-0.11,3.51,0.1,6.9,0.33,10.13c0.32,3.22,0.72,6.28,1.25,9.09c0.32,1.71,0.66,3.29,1.02,4.81c1.59,4.68,3.45,9.25,5.62,13.65
	c-0.88,3.58-1.35,7.35-1.35,11.22c0,25.03,19.53,45.32,43.62,45.33c0.89,0,1.76-0.06,2.64-0.1c0,0,0.03,0,0.04,0v24.24
	c0,8.86,7.55,16.11,16.77,16.12c9.23,0,16.77-7.25,16.77-16.12c0,0.13,0.02,0.26,0.02,0.39c0-0.13,0.02-0.26,0.02-0.39
	c0,8.86,7.55,16.11,16.77,16.12c9.23,0,16.77-7.25,16.77-16.12c0,0.13,0.02,0.26,0.02,0.39c0-0.13,0.02-0.26,0.02-0.39
	c0,8.86,7.55,16.11,16.78,16.12c9.23,0,16.77-7.25,16.77-16.12c0,0.13,0.02,0.26,0.02,0.39c0-0.13,0.02-0.26,0.02-0.39
	c0,8.86,7.55,16.11,16.77,16.12c9.23,0,16.77-7.25,16.77-16.12v-24.14c24.06-0.06,43.55-20.33,43.55-45.33
	c0-3.88-0.47-7.63-1.35-11.22c2.05-4.14,3.82-8.44,5.36-12.83c0.43-1.75,0.83-3.61,1.22-5.63c0.53-2.81,0.93-5.87,1.25-9.09
	c0.24-3.23,0.45-6.63,0.33-10.13C506.48,223.49,506.42,222.6,506.37,221.7"/>
<linearGradient id="SVGID_1_" gradientUnits="userSpaceOnUse" x1="297.0818" y1="123.5626" x2="470.0818" y2="320.5627">
	<stop  offset="0" style="stop-color:#1A1A1A"/>
	<stop  offset="1" style="stop-color:#133032"/>
</linearGradient>
<path class="st2" d="M508.01,193.23c-0.5-1.3-0.99-2.61-1.57-3.86c-1.64-3.64-3.53-7.08-5.53-10.29c-1.05-1.57-2.03-3.15-3.09-4.62
	c-1.1-1.43-2.18-2.84-3.22-4.21c-1.08-1.34-2.21-2.57-3.27-3.78c-0.54-0.6-1.07-1.18-1.58-1.76c-0.55-0.55-1.09-1.08-1.62-1.61
	c-1.06-1.04-2.09-2.04-3.06-2.99c-1.01-0.91-1.99-1.74-2.91-2.52c-0.93-0.78-1.77-1.51-2.59-2.16c-0.81-0.65-1.6-1.19-2.29-1.72
	c-1.39-1.03-2.51-1.79-3.26-2.32c-0.76-0.52-1.17-0.8-1.17-0.8l0.05,0.06c0.11,0.12,0.38,0.48,0.83,1.05
	c0.59,0.71,1.41,1.78,2.52,3.08c0.54,0.66,1.18,1.35,1.79,2.18c0.62,0.83,1.31,1.69,2.03,2.63c0.72,0.94,1.53,1.9,2.31,2.95
	c0.78,1.07,1.59,2.19,2.44,3.36c0.43,0.58,0.86,1.17,1.31,1.77c0.42,0.63,0.83,1.26,1.27,1.9c0.84,1.3,1.79,2.58,2.64,3.97
	c0.85,1.39,1.73,2.83,2.62,4.29c0.83,1.49,1.67,3.01,2.53,4.56c0.44,0.76,0.8,1.57,1.2,2.38c0.4,0.81,0.79,1.61,1.19,2.43
	c0.42,0.81,0.76,1.65,1.11,2.49c0.36,0.83,0.73,1.68,1.09,2.52c0.72,1.69,1.27,3.47,1.95,5.2c0.56,1.77,1.14,3.55,1.63,5.34
	c0.44,1.81,0.99,3.58,1.3,5.41c0.18,0.91,0.37,1.81,0.55,2.72c0.14,0.91,0.27,1.82,0.42,2.72c0.31,1.81,0.42,3.62,0.63,5.41
	c0.08,0.9,0.1,1.79,0.15,2.67c0.05,0.89,0.11,1.77,0.1,2.65c0.11,3.51-0.1,6.9-0.33,10.13c-0.32,3.22-0.72,6.28-1.25,9.09
	c-0.39,2.03-0.8,3.88-1.22,5.63c-1.53,4.39-3.3,8.68-5.36,12.83c0.88,3.58,1.35,7.35,1.35,11.22c0,25-19.49,45.27-43.55,45.33v24.14
	c0,8.86-7.56,16.12-16.8,16.12h-0.02c-9.22-0.01-16.77-7.26-16.77-16.12c0,0.13-0.02,0.26-0.02,0.39
	c-0.22,8.68-7.67,15.73-16.77,15.73h-0.02c-9.23-0.01-16.78-7.26-16.78-16.12c0,0.13-0.02,0.26-0.02,0.39
	c-0.22,8.68-7.67,15.73-16.77,15.73h-0.02c-9.22-0.01-16.77-7.26-16.77-16.12c0,0.13-0.02,0.26-0.02,0.39
	c-0.22,8.68-7.67,15.73-16.77,15.73h-0.02c-9.23-0.01-16.77-7.26-16.77-16.12v-24.24c0,0-0.03,0-0.04,0
	c-0.87,0.06-1.73,0.1-2.62,0.1h-0.03c-24.1-0.01-43.62-20.31-43.62-45.33c0-3.88,0.47-7.63,1.35-11.22
	c-2.18-4.4-4.04-8.97-5.62-13.65c-0.35-1.52-0.69-3.1-1.02-4.81c-0.53-2.81-0.93-5.87-1.25-9.09c-0.24-3.23-0.45-6.63-0.33-10.13
	c0-0.87,0.06-1.75,0.1-2.65c0.06-0.89,0.08-1.78,0.15-2.67c0.22-1.78,0.32-3.6,0.64-5.41c0.13-0.91,0.27-1.81,0.41-2.72
	c0.18-0.9,0.37-1.81,0.55-2.72c0.3-1.83,0.87-3.61,1.3-5.41c0.49-1.79,1.07-3.57,1.63-5.34c0.68-1.73,1.23-3.5,1.95-5.2
	c0.37-0.84,0.73-1.69,1.09-2.52c0.35-0.84,0.69-1.69,1.11-2.49c0.4-0.82,0.8-1.62,1.2-2.43s0.76-1.62,1.2-2.38
	c0.86-1.54,1.71-3.07,2.53-4.56c0.89-1.46,1.76-2.89,2.62-4.29c0.86-1.39,1.8-2.67,2.65-3.97c0.43-0.64,0.85-1.28,1.26-1.9
	c0.45-0.6,0.88-1.19,1.31-1.77c0.85-1.17,1.66-2.28,2.44-3.36c0.79-1.06,1.6-2.01,2.31-2.95c0.72-0.94,1.41-1.8,2.03-2.63
	c0.62-0.82,1.25-1.52,1.79-2.18c1.11-1.3,1.93-2.37,2.52-3.08c0.57-0.73,0.88-1.12,0.88-1.12s-0.03,0.02-0.09,0.06
	c-0.15,0.1-0.52,0.35-1.08,0.74c-0.75,0.54-1.88,1.3-3.26,2.32c-0.68,0.52-1.49,1.06-2.29,1.72c-0.82,0.65-1.66,1.38-2.59,2.16
	c-0.92,0.78-1.9,1.6-2.91,2.52c-0.98,0.95-1.99,1.94-3.06,2.99c-0.53,0.53-1.07,1.06-1.62,1.61c-0.52,0.58-1.05,1.17-1.58,1.76
	c-1.06,1.21-2.19,2.45-3.28,3.78c-1.05,1.37-2.12,2.77-3.22,4.21c-1.07,1.46-2.04,3.04-3.09,4.62c-2,3.21-3.89,6.65-5.53,10.29
	c-0.56,1.22-1.04,2.49-1.53,3.75c0.01-0.07,0.03-0.14,0.05-0.22c10.02-55.27,60.07-101.08,120.36-101.1h0.02
	c60.5,0,110.69,46.11,120.48,101.63c-0.03-0.07-0.06-0.14-0.09-0.22L508.01,193.23z M520.16,213.09c0-33.48-14.14-66.95-38.8-91.85
	c-25.39-25.64-58.7-39.75-93.79-39.75c-35.09,0-68.4,14.12-93.79,39.75c-24.66,24.9-38.8,58.38-38.8,91.85
	c0,17.46,3.7,34.35,11,50.24c-0.57,3.26-0.86,6.59-0.86,9.92c0,28.01,20.17,51.24,46.3,55.1v14.36c0,14.58,12.17,26.45,27.13,26.45
	c6.33,0,12.17-2.13,16.8-5.7c4.63,3.57,10.46,5.7,16.8,5.7c6.34,0,12.17-2.13,16.8-5.7c4.63,3.57,10.46,5.7,16.8,5.7
	s12.17-2.13,16.8-5.7c4.62,3.57,10.46,5.7,16.8,5.7c14.96,0,27.12-11.87,27.12-26.45v-14.86c24.78-5.03,43.55-27.63,43.55-54.61
	c0-3.33-0.28-6.66-0.85-9.92c7.3-15.89,11-32.78,11-50.24"/>
<path class="st3" d="M405.68,276.15l-13.08-9.5c-1.38-1.01-3.2-1.51-5.02-1.5c-1.8,0-3.6,0.5-4.98,1.5l-13.08,9.5
	c-2.76,2.01-4.14,6.27-3.09,9.52l5,15.38c1.05,3.24,4.68,5.88,8.1,5.88h16.16c3.41,0,7.04-2.64,8.1-5.88l5-15.38
	C409.83,282.42,408.44,278.16,405.68,276.15z"/>
<path class="st3" d="M473.51,296.89c-0.71-0.47-1.52-0.96-2.36-1.55c-0.83-0.61-1.74-1.23-2.71-1.92c-0.97-0.69-2.02-1.36-3.08-2.14
	c-1.05-0.8-2.16-1.62-3.31-2.49c-0.58-0.43-1.17-0.86-1.77-1.31c-0.58-0.47-1.17-0.96-1.76-1.45c-1.18-1-2.46-1.94-3.7-3.03
	c-1.22-1.08-2.47-2.19-3.75-3.33c-0.72-0.69-1.45-1.39-2.18-2.1l17.06,1.13l-10.49-11.55c12.72-1.02,22.68-10.13,22.55-32.42
	c-0.21-33.54-34.82-39.72-51.17-39.2c-32.98-0.21-25.44,29.02-23.62,35.33c2.94,10.15,12.08,20.57,22.81,27.57l2.45,1.55L447.53,272
	l-13.02,0.68c2.63,3,5.45,5.74,8.29,8.22c1.47,1.19,2.86,2.42,4.31,3.51c1.47,1.05,2.91,2.08,4.31,3.08
	c1.42,0.96,2.86,1.81,4.24,2.65c0.69,0.42,1.37,0.82,2.04,1.22c0.68,0.36,1.37,0.72,2.02,1.07c1.33,0.68,2.59,1.34,3.8,1.95
	c1.22,0.58,2.42,1.08,3.52,1.55c1.11,0.47,2.14,0.92,3.11,1.31c0.97,0.4,1.89,0.67,2.69,0.98c1.62,0.58,2.92,0.98,3.8,1.27
	c0.88,0.27,1.35,0.42,1.35,0.42s-0.41-0.29-1.17-0.81c-0.77-0.51-1.88-1.29-3.32-2.21"/>
<path class="st3" d="M348.39,195.51c-16.36-0.51-50.95,5.66-51.17,39.2c-0.14,22.29,9.82,31.4,22.54,32.42l-10.49,11.55l17.06-1.13
	c-0.74,0.71-1.46,1.41-2.18,2.11c-1.28,1.14-2.54,2.25-3.75,3.33c-1.23,1.08-2.51,2.03-3.7,3.02c-0.6,0.49-1.18,0.98-1.76,1.45
	c-0.61,0.45-1.2,0.88-1.77,1.31c-1.16,0.87-2.27,1.7-3.31,2.49c-1.06,0.78-2.11,1.45-3.08,2.14c-0.97,0.68-1.88,1.31-2.71,1.92
	c-0.83,0.61-1.64,1.08-2.36,1.55c-1.44,0.92-2.54,1.7-3.32,2.21c-0.76,0.53-1.17,0.81-1.17,0.81s0.46-0.14,1.35-0.42
	c0.87-0.29,2.17-0.69,3.8-1.27c0.81-0.29,1.73-0.58,2.69-0.98c0.97-0.39,1.99-0.84,3.11-1.31c1.11-0.47,2.29-0.98,3.52-1.56
	c1.2-0.63,2.47-1.27,3.8-1.95c0.66-0.35,1.34-0.7,2.02-1.06c0.66-0.4,1.35-0.81,2.04-1.22c1.38-0.84,2.82-1.7,4.24-2.65
	c1.4-1,2.85-2.03,4.31-3.08c1.45-1.09,2.84-2.31,4.31-3.51c2.85-2.47,5.67-5.21,8.3-8.22l-13.02-0.68l19.06-12.02l2.46-1.56
	c10.73-7,19.87-17.43,22.81-27.57C373.83,224.52,381.36,195.29,348.39,195.51"/>
</svg>
